<mxfile host="app.diagrams.net" agent="Mozilla/5.0 (Macintosh; Intel Mac OS X 10_15_7) AppleWebKit/537.36 (KHTML, like Gecko) Chrome/128.0.0.0 Safari/537.36" version="24.7.10">
  <diagram name="第 1 页" id="PfbFX1tvBp1CJIC69Yw1">
    <mxGraphModel dx="954" dy="1784" grid="1" gridSize="10" guides="1" tooltips="1" connect="1" arrows="1" fold="1" page="1" pageScale="1" pageWidth="827" pageHeight="1169" math="0" shadow="0">
      <root>
        <mxCell id="0" />
        <mxCell id="1" parent="0" />
        <mxCell id="9OJOCxq-4V8C3ikbFelk-1" value="" style="rounded=1;whiteSpace=wrap;html=1;opacity=50;" parent="1" vertex="1">
          <mxGeometry x="160" y="400" width="450" height="170" as="geometry" />
        </mxCell>
        <mxCell id="9OJOCxq-4V8C3ikbFelk-2" value="" style="endArrow=none;dashed=1;html=1;rounded=0;strokeWidth=2;dashPattern=8 8;" parent="1" edge="1">
          <mxGeometry width="50" height="50" relative="1" as="geometry">
            <mxPoint x="40" y="280" as="sourcePoint" />
            <mxPoint x="800" y="280" as="targetPoint" />
          </mxGeometry>
        </mxCell>
        <mxCell id="9OJOCxq-4V8C3ikbFelk-4" value="AWS" style="text;html=1;align=center;verticalAlign=middle;resizable=0;points=[];autosize=1;strokeColor=none;fillColor=none;fontFamily=Georgia;fontStyle=2;fontSize=24;" parent="1" vertex="1">
          <mxGeometry x="40" y="10" width="80" height="40" as="geometry" />
        </mxCell>
        <mxCell id="9OJOCxq-4V8C3ikbFelk-5" value="Local" style="text;html=1;align=center;verticalAlign=middle;resizable=0;points=[];autosize=1;strokeColor=none;fillColor=none;fontFamily=Georgia;fontStyle=2;fontSize=24;" parent="1" vertex="1">
          <mxGeometry x="40" y="320" width="80" height="40" as="geometry" />
        </mxCell>
        <mxCell id="9OJOCxq-4V8C3ikbFelk-6" value="" style="shape=image;verticalLabelPosition=bottom;verticalAlign=top;imageAspect=0;image=data:image/png,iVBORw0KGgoAAAANSUhEUgAAAVMAAAG2CAYAAADCwmVFAAAACXBIWXMAAC4jAAAuIwF4pT92AAAE7mlUWHRYTUw6Y29tLmFkb2JlLnhtcAAAAAAAPD94cGFja2V0IGJlZ2luPSLvu78iIGlkPSJXNU0wTXBDZWhpSHpyZVN6TlRjemtjOWQiPz4gPHg6eG1wbWV0YSB4bWxuczp4PSJhZG9iZTpuczptZXRhLyIgeDp4bXB0az0iQWRvYmUgWE1QIENvcmUgOS4xLWMwMDEgNzkuYThkNDc1MywgMjAyMy8wMy8yMy0wODo1NjozNyAgICAgICAgIj4gPHJkZjpSREYgeG1sbnM6cmRmPSJodHRwOi8vd3d3LnczLm9yZy8xOTk5LzAyLzIyLXJkZi1zeW50YXgtbnMjIj4gPHJkZjpEZXNjcmlwdGlvbiByZGY6YWJvdXQ9IiIgeG1sbnM6eG1wPSJodHRwOi8vbnMuYWRvYmUuY29tL3hhcC8xLjAvIiB4bWxuczpkYz0iaHR0cDovL3B1cmwub3JnL2RjL2VsZW1lbnRzLzEuMS8iIHhtbG5zOnhtcE1NPSJodHRwOi8vbnMuYWRvYmUuY29tL3hhcC8xLjAvbW0vIiB4bWxuczpzdEV2dD0iaHR0cDovL25zLmFkb2JlLmNvbS94YXAvMS4wL3NUeXBlL1Jlc291cmNlRXZlbnQjIiB4bWxuczpwaG90b3Nob3A9Imh0dHA6Ly9ucy5hZG9iZS5jb20vcGhvdG9zaG9wLzEuMC8iIHhtcDpDcmVhdG9yVG9vbD0iQWRvYmUgUGhvdG9zaG9wIDI0LjYgKFdpbmRvd3MpIiB4bXA6Q3JlYXRlRGF0ZT0iMjAyMy0xMS0xNlQwMDo0NTo1MyswODowMCIgeG1wOk1ldGFkYXRhRGF0ZT0iMjAyMy0xMS0xNlQwMDo0NTo1MyswODowMCIgeG1wOk1vZGlmeURhdGU9IjIwMjMtMTEtMTZUMDA6NDU6NTMrMDg6MDAiIGRjOmZvcm1hdD0iaW1hZ2UvcG5nIiB4bXBNTTpJbnN0YW5jZUlEPSJ4bXAuaWlkOjI0ZmYzNjJhLWE4ZDYtYTg0OS04ODAxLWYwNDY3YzRmOGY1OSIgeG1wTU06RG9jdW1lbnRJRD0ieG1wLmRpZDoyNGZmMzYyYS1hOGQ2LWE4NDktODgwMS1mMDQ2N2M0ZjhmNTkiIHhtcE1NOk9yaWdpbmFsRG9jdW1lbnRJRD0ieG1wLmRpZDoyNGZmMzYyYS1hOGQ2LWE4NDktODgwMS1mMDQ2N2M0ZjhmNTkiIHBob3Rvc2hvcDpDb2xvck1vZGU9IjMiPiA8eG1wTU06SGlzdG9yeT4gPHJkZjpTZXE+IDxyZGY6bGkgc3RFdnQ6YWN0aW9uPSJjcmVhdGVkIiBzdEV2dDppbnN0YW5jZUlEPSJ4bXAuaWlkOjI0ZmYzNjJhLWE4ZDYtYTg0OS04ODAxLWYwNDY3YzRmOGY1OSIgc3RFdnQ6d2hlbj0iMjAyMy0xMS0xNlQwMDo0NTo1MyswODowMCIgc3RFdnQ6c29mdHdhcmVBZ2VudD0iQWRvYmUgUGhvdG9zaG9wIDI0LjYgKFdpbmRvd3MpIi8+IDwvcmRmOlNlcT4gPC94bXBNTTpIaXN0b3J5PiA8L3JkZjpEZXNjcmlwdGlvbj4gPC9yZGY6UkRGPiA8L3g6eG1wbWV0YT4gPD94cGFja2V0IGVuZD0iciI/PoIWUd0AACaJSURBVHic7d17fFx1nf/x9+ecya132qqgQGYmk6Qx0C0ElApqFvC6su6KraJc6gKrsl7XCwICIygIrAiCAoouCOJKUPy5uK43jJeligRDSmwuZ+acQN1KoW3a9JLLnPP5/UHbTdO0zZx8kzOX9/Px4PFoz8z3ez4PHvB6zPWMYJa0tLTMGdq69TUaBM0BsEyARiheBpH5Cp0vkBoAMlvzEFGJUIwqdAgiQwJshcIRC70K9FgVFY/19fX9ZTbGmNF4NSWT9WNBcI5CzhTg1apaOZPnIyI6gEivQB8VkYffe8EFv0yn08GMnMb0hitXrqx5YePG8xVYo4pTTO9PRBSWAH+BWPfbVRV39fb2uob3NqOxsXF+MDLywQDyCai+1NS+RESmCSSngu/EBNf3um6vmT2nSVWlPl73PkBvUOhSE0MREc2SQAR31cyff8W6deu2TmejacU0lUo1Yyz3dQVeM519iIgiJbJJBJ90XPe+0FuEXZhKJC7SQL8CoCbsHkREhUQED1TNnfv+7u7uHXmvzXfBypUra57fuPFuVbwn37VERAVPpE9i9jscx+nOa1k+d14RX7FoSLc9Auip+U1HRFREBIO2ZZ3Vl83+bupLpqixsfHlueHRnwJ6XLjpiIiKym6x5F2O6/7nVO5sTeVOxx9//BH+8MjPGFIiKiM1UDzUkEyeMZU7HzamK1eurNm9fegRBZqnPxsRUfFQ1cog0Ifr6upaDnffwz7NT8UTD6rqKjOjjTuxyLOq6BXRZxTWkCDYDUBNn4eISpxIpSrmA/oSUTRCJGX8q+siz1XWVJ+wfv36jQe9y6HWpxKJf9FAbzczi4xA8YhAfhCbU/WrQw1FRBTWypUrazY/99ypgepbVPU9UBxpYl8RtJ9w8slntrW1+ZPefrCFqdrUCRB/rapWTWsAyAsK3DJnwbyvTfcbBkRE+Vi1apXd+XjH2wPo5YAe9qn64YhYn3O8bHrS2yY7mE6nrfv//Z4/KnBi6JNCcrDwFbuyMt3b2zsUdh8iIhMa4nXv9tW/GcBRYfcQSA4V9orJPoM6aUzrEokPIdDbwp8QWdu23tWbzT4Rdg8iItNaksmF23y9W6HvDL2JyG8znvu6iYftiQeWLVu2JMj5/w9Adcgz/WKRbZ2xLps1enkrIqLp2rh168iWbYNtSxcfsUsVZyLcV+prlyxZ7GzZunXd+IMHfDTKHxn5OFQXhhlUIA9Vz5vzdx3Z7LYw64mIZkO/694kllwAINSFojXQK9Pp9H793O+RaUsyuXC34rsI8ahURH62cOnis5966qmxMMMREc2mLYODXUuPWLxJoW8LsXzpuq6n/rxlcHDfa6f7lXV7ELw/1KNSkT67qvKdHR0dDCkRFY1+L3snxLo11OJALx3/1/1iqsD78t1PREZswWq+Y09Exah6bs2nAcn7zXIFTmxMJJbv/fu+mDYkkyerYlneGypu6nPdp/JdR0RUCLq7u0ctiV0MYNIP4x+KD5y/98/7YuoHeG++Gwlkw0tffuR1+a4jIiok/V5/pwi+nvfCQM/Z+8d9MRUN3pDvPmrhxrVr1+7OewAiogKjtn29iOT1vo8CL2+qqzsO2BPT5njzkQq8Mq8zi2x76ZFH3p3XGiKiApXJZJ6F4sF81+V8/3RgT0zHMNya7waiaOOjUiIqJWLh3nzXKPC3wJ6YBvCXH/ruk51VH8p7DRFRAXvvBRf8EkB+F2RSHA/siakCjfmsFZGxOQsWTPm3UYiIikE6nQ4gaM9njQLxVCpVZQGAaH4xVUVXV1fXznzWEBEVAwv4fZ5LbACpve/m53VJKgF68jwZEVFRUJG8+2YFwVEvxlRkfn4rMZDvyYiIioGFEH3zZb6VSqWqVLUir4Wq2/M+GRFREZDKyrz75lvBfKuqqmpuvgtVZFe+a4iIikHF6GjefbNU5li+74e5OCp/RZSISpJlWXn3TQE54OLQRESUP8aUiMgAxpSIyADGlIjIAMaUiMgAxpSIyADGlIjIAMaUiMgAxpSIyADGlIjIAMaUiMgAxpSIyADGlIjIAMaUiMgAxpSIyADGlIjIAMaUiMgAxpSIyADGlIjIAMaUiMgAxpSIyADGlIjIAMaUiMgAxpSIyADGlIjIAMaUiMgAxpSIyADGlIjIAMaUiMgAxpSIyADGlIjIAMaUiMgAxpSIyADGlIjIAMaUiMgAxpSIyADGlIjIAMaUiMgAxpSIyADGlIjIAMaUiMgAxpSIyADGlIjIAMaUiMgAxpSIyADGlIjIAMaUiMgAxpSIyADGlIjIAMaUiMgAxpSIyADGlIjIAMaUiMgAxpSIyADGlIjIAMaUiMgAxpSIyADGlIjIAMaUiMgAxpSIyADGlIjIAMaUiMgAxpSIyADGlIjIAMaUiMgAxpSIyADGlIjIAMaUiMgAxpSIyADGlIjIAMaUiMgAxpSIyADGlIjIAMaUiMgAxpSIyADGlIjIAMaUiMgAxrQE1MfrV7TGW6ujnoOonDGmJUA1d9EG9TKp2uQljCpRNBjTEqHAyxXBVxlVomgwpiWGUSWKBmNaoiZGNZVKVUU9E1EpY0xL3N6oYiyXZVSJZg5jWiYYVaKZxZiWGUaVaGYwpmVqXFT5miqRAYxpmVPgFfuiGk9+kFElCocxJQB7oqrB1xhVonAYU9oPo0oUDmNKk2JUifLDmNIhMapEU8OY0pQwqkSHxphSXhhVoskxphTK/0XVdxhVIsaUpkmhR++Nan08+QFGlcoVY0pGKPToQIM7GFUqV4wpGcWoUrliTGlGMKpUbhhTmlETo9rc3FwZ9UxEM4ExpVmxN6ojO3ZlGFUqRYwpzSpGlUoVY0qRYFSp1DCmFKl9Ud25y6mPx9/PqFKxYkypIKjqMYHiTkaVihVjSgWFUaVixZiWBHkSwO6opzBpfFRT8eQHGVUqdIxpCXAGst+aG7PjEOtGERmKeh6TVPUY1eBrfKRKhY4xLRFdmcymjJe9tGrunDgg10IwGPVMJvHpPxU6xrTEdHd3b8kMuFdJLFYrkCtE5PmoZzKJUaVCxZiWKMdxtjsD7nULlyyOC6xPANgY9UwmMapUaBjTEtfR0bHLGcjeLBWxhFjyIYg8E/VMJo2Pal0i8c+MKkWFMS0TjuOMOK771UVLFqfEkosE4kQ9k0mqegwCvWt4565+RpWiwJiWmY6OjjHHdb95wqtOWiaWnCfAn6OeySjVYxlVigJjWqba2tp8x3Xv7/fc48SSVSL4U9QzGcWo0ixjTMuciKjjug85nneiZVtnieD3Uc9kFKNKs4QxpX36s9lHHM9baVnyRhH5TdTzGMWo0gxjTOkA/a77c8dzX2/b1mtF5GdRz2PUhKi2tLRURD0SlQbGlA6qL5v9neO5b7Jt61Ui8p8ANOqZjNkT1cHNWxxGlUxgTOmw+rLZPzqe+/cxS1aISBuAIOqZjNk/qhczqhQWY0pT1uu6XY7nrralslkg9wkkF/VMxrwY1a8Pbt7Sz6hSGIwp5a3P6+txBtzzraqKRoHcLSKjUc9kjGoto0phMKYUWl9fX9YZcC9GzK4TyO0QDEc9kzGMKuWJMaVpcxxngzPgfrhGJG5B/k0gO6KeyRhGlaaIMSVjnnbd5/oH3E/FaqriliVfgMi2qGcyhlGlw2BMybienp7N/a772UWW1FqWXCnA5qhnMoZRpYNgTGnGdGSz2/pd9/NzFi6otSz5NAR/jXomYxhVmoAxpRnX1dW1s991bzoG8QQs+YiIPBv1TMaMi2oqkbiIUS1fjCnNmnavfTjjurdVzZ2TgiX/LEA26pmMUa3VQL8xuHlzH6NanhhTmnXd3d2jGdf9xtGJeCMsuUAEPVHPZIwizqiWJ8aUItPe3p7LuO63z12zplkseRdEuqKeyRhGtewwphS5dDodOK77oONmV4glb4fIH6OeyRhGtWwwplQw9lyo+kcZz32VCN4MyO+inskYRrXkMaZUkBzP+2lmwH2tCFoB+UXU8xjDqJYsxpQKmuN5v84MuG+wBKcA8uOo5zGGUS05jCkVhX7P+0NmwH2bJRUnCOT7KJULVe8f1QsZ1eLFmFJR6ff6O50B951SETtOBA8A8KOeyYgXo3r3thc29zKqxYkxpaLkOM6fHc97L2L2MhF8S0TGop7JBAUS46Pa2toai3ommhrGlIpaJpNxHM+7sMqSlFjyNREZiXomE/ZGdYPr9TGqxYExpZLQnc0+47juv1TUVCdE8GUAu6KeyQRGtXgwplRS1q9fv9HxvH+1qyprRXC9iGyPeiYTGNXCx5hSSerr63vB8bzL52FhrQiuFmBL1DOZsC+q3jMXRz0L7Y8xpZLW6XUOOp53jV1dFRfBZyCyKeqZjFBI1CPQ/hhTKgu9vb1Djufd8NKjjoxbgo8J8JeoZ6LSwphSWVm7du3ufs+7FRWxOkusD0LgRT0TlQbGlMqS4zgj/V72zmPi8XpL7PdBpC/qmai4MaZU1trb23P9Xuae89Zc0GSLfQ4gT0c9ExUnxpQIL15Ttc/L/IfjZZfbsN8BSEfUM1FxYUyJxhER7RvIPJwZcE+yYb9VgMeinomKA2NKdBB9A5mfOAPeqYB9ugh+FfU8VNgYU6LDyAxkfuV43umI2adC8JOo56HCxJgSTVEmk3ks43lvRcw+CYKHUSrXVCUjGFOiPGUymY6M572jMmYvh+A/AARRz0TRY0yJQlqfyTyd8bxzYjH7DSiRq1RReLzyDFFITYlE7Rjwad8PLgJQGfU8FC3GlChPDQ0NSX907NIxxftUlT8vQgAYU6Ipa0om68eC4LJgZOw8QGN894nGY0yJDqO+tr5Jkbts1A/eA8Dmm/g0GcaU6CCa6uqOG/X9ywMdexf4Zi0dBmNKNEF9vH6Fau6K0Zx/NsCLMNPUMKZEezQmkyf5QXBFoGP/EPUsVHwYUyp7qXjqFKh/Rc4P3hb1LFS8GFMqWw3J5GlBoJ9Vzb0p6lmo+DGmVHbqE4nXBQGu8v3gjKhnodLBmFLZaEgmz/B9TQeBnhb1LFR6GFMqeal4/E0A0r4fnBL1LFS6GFMqWalE4iwNcJWqnhT1LIbtssBfVS00jCmVFFWVVCL1doF/tQa6Iup5TBJgJyy5c45l3diVyWyKeh7aH7/VQSUhnU5bqUTinalE8imo/7AqVkQ9kykC2QHITaiIJRzX/SRDWpj4yJSK2qpVq+zOP3asvv+ee65URVPU85gkIkOAfjVWXfVvPT09m6Oehw6NMaWi1NraGtswMHDOk3984rNQbYh6HpNEZDsEt1fNmfOl7u7uLVHPQ1PDmFJRaWlpqdi+eeu5G1zvswoko57HKJFtUNxWM3/ezevWrdsa9TiUH8aUikJzc3Pl8K5dawY3b7kcqrVRz2OUYFBg3ToPC27pHOgcjHocCocxpYLWGm+t3qDP/NPIjl2XAXp01POYJMAWCG5FLHaL4zjbo56HpocxpYK0cuXKmhc2bvznZ9W7FMBRUc9jkgCbFfJlu7ryK729vUNRz0NmMKZUUJYvXz5357ahD2za+NdPQfGyqOcxSSAvQOTmqrk1t3V3d++Ieh4yizGlgtDY2DjfHxm5ZNe2oU8CurSkfhlEZJNAb56zYP7tXV1dO6Meh2YGY0qRakkmF25X/bA/PPJxBRaX1O8riTwHwb8tWrz4ax0dHbuiHodmFmNKkTj++OOP2D2086ODgX4MqgujnscowV9FrZtectTL7li7du1uuG7UE9EsYExpVjU0NCzVsbGP7R7a8RFVnR/1PCYJ8L8Q66ajceyd7QPtw85ANuqRaBYxpjQrltfVvXSnr58IRkb/RYG5Uc9jkgB/UUtugG1/3XGcEQeMaDliTGlGNTU1HTU2PPzJnTn/AwDmlNArohCRZyG4AbZ9d8ZxRqKeh6LFmNKMSKVSR8uY/+nR3bsvhqI66nmMEhmwIF+snFvzre7u7tGox6HCwJiSUU2JRO2Y6qXI+RcG0MpSenMeAg8i1y9avPjfOzo6xqIehwoLY0pGNDQ0JIORsc+MKdaooqKUPuIkQBaWXH90be097e3tOb47T5NhTGlampLJ+tEguDwYGTtXobESaigE4ojIda+IH3tfe3t7zmFE6RAYUwqlId6wLNCxK0b94BwAtpZURaXPhl73NyefdH9bW5vf7/HdeTo8xpTy0lRXd9yo71/h6+hqlNrP3oj0iuALJ5x00gNtbW1+n+dFPREVkdL6n4FmTH28fkWqNvHQaM7vguLdKKH/dkSw3oL13vPWXPBKx3Xva2tr86OeiYpPyfwPQTOjrq6uJRVP/DDQsT8p9GwAEvVMpgjQbYt9zrlr1hzXP5B9IJ1OB1HPRMWLT/NpUvXx+KsD4Crk/LeW0KuhLxJZJ4Jr+7PZh0RE0+l01BNRCWBMaT8NyeRpQaBXBqpvjHoW00TkKbHk2r5M5gcioiIl8yCbCgBjSgCAVDz+elVc5fvB6VHPYpoI/mSpfW2v6/yQEaWZwpiWuYZk8kw/0KtU9bVRz2KedIiFaxzX/REAMKI0kxjTMlUXr3uzwL/K94OVUc9imog8LpZc25/NPhL1LFQ+GNMyk0okzlLFlVD/5FJ7Y0kEv7fUurbPy/5X1LNQ+WFMy4CqSmM89Q+B+FdqoCdEPY9pAjwGwTWO5/006lmofPFzpiUsnU5bqURiVSqRfMqH/wNVlFhI5XeWJW90BrxTGVKKGmNagtLptFVfm3zP/ffc87QG+iBUj496JpNE5DexmH1GZsB9bb/r/jzqeYgAPs0vKa2trbFnBwbec989914BaEMpXXsEAETQDiDteO6vo56FaCLGtAS0tLRUbHth63kbXO9yAHVRzzMDHrUtSfe57m+jHoToYBjTErBt8+YbFPh41HOYJiI/V9tKZzKZx6KehehwGNNSoFJZUle2F/kpYKcdz/l91LMQTRVjSoVD8F+2yOf6XPfxqEchyhdjSpETyCO2LZ/rzWafiHoWorAYU4qKish/ImZ/znGcJ6Mehmi6GFOabQrBDy1UXNPv9XdGPQyRKYwpzRYVyA9sC9f0um5X1MMQmcaY0kwLROT7FbZ1zfpM5umohyGaKYwpzZQAggclFrvWcZw/Rz0M0UxjTMk0XwTfs1B5bZ/X1xP1MESzhTElU3yBPBCz5fM92Wxf1MMQzTbGlKZFIDkVfAe29Xknk3GinocoKowphSKQHETvQ8z+QsZxMlHPQxQ1xpTyIiJjUNxrV1de19vb60Y9D1GhYExpSkRkVIF7KgTXrffcgajnISo0jCkd0osR1W9VWXJ9dzb7TNTzEBUqxpQmJSIjUNyNmP3FjONsiHoeokLHmNL+BMOWyjesqsov9vb2/m/U4xAVC8aU9totgrsqampuXL9+/caohyEqNowp7RJL7qwGbnzadZ+LehiiYsWYlikBdgrkjpqYdVNXJrMp6nmIih1jWmYEsgMiX0XM+lK/4zwf9TxEpYIxLRMiMgTo7bHqqi/19PRsjnoeolLDmJY4Edkugtsq58y5ubu7e0vU8xCVKsa0VIlsE8itNfPn3rJu3bqtUY9DVOoY01IjGBTglnlYeGun1zkY9ThE5YIxLRECbBFLvqy2/RXHcbZHPQ9RuWFMS4CI3mdVVV3W29s7FPUsROWKMS0B/Z73h6hnICp3VtQDEBGVAsaUiMgAxpSIyADGlIjIAMaUiMgAxpSIyADGlIjIAMaUiMgAxpSIyADGlIjIAMaUiMgAxpSIyADGlIjIAMaUiMgAxpSIyADGlIjIAMaUiMgAxpSIyADGlIjIAMaUiMgAxpSIyADGlIjIAMaUiMgAxpSIyADGlIjIAMaUiMgAxpSIyADGlIjIAMaUiMgAxpSIyADGlIjIAMaUiMgAxpSIyADGlIjIAMaUiMgAxpSIyADGlIjIAMaUiMgAxpSIyADGlIjIAMaUiMgAxpSIyADGlIjIAMaUiMgAxpSIyADGlIjIAMaUiMgAxpSIyADGlIjIAMaUiMiAsDEVo1MQERWIIAhC9S1UTEVlbph1RESFbrSiIlTfwj0yFZ0fah0RUYGTsbF5YdaFe2QagDElopKkIgvCrAsVUxXEw6wjIip0AVAbZl24mAKNYdYRERU69TVU30K+AYVkS0tLRZi1RESFTATLwqwL+chUY9s3bz4xzFoiokKmwKvDrAv9oX2FdXrYtUREhSiVStVB9dgwa8PHVJUxJaKSor4fumuhYyqC1zc0NCwNu56IqNCI4uywa6fzyLTCHxt7d9j1RESFpKmp6ShVPTPs+uld6CTABdNaT0RUIHLDw+cCsMOun+ZVo/Sk+kTiddPbg4goWi0tLRWq+PB09pj2JfhU8dnp7kFEFKVtW7acr6rHTGcPAzHVN9TV1b1muvsQEUWhubm5EoFeNt19jFwcWnz/9lWrVoV+rYGIKCrDO3Z9SoG66e4T7uukgvXj/66KE5584olLpjsMEdFsWhZfFgf0ivHHJvZtqkI+MrW+DpGu/QYIcN2yZLIh3H5ERLNr1apVdg7D/w6gZtxhX0Q+Gma/kJfg0xxs64MAdN8x6LxcoA+2xlurw+xJRDSbnnz8iatV0Tr+mAhuq7Gsp8LsF/o100wm8xgEd40/pqp/swHeV8PuSUQ0Gxpq694y8ek9BB5isavD7jmtN6COQfzjE5/uq+Kf6moT10xnXyKimVIfj786gN+Gcf0TkTFb5F2O42wPu++0YtrutQ/HBKsFsmP/W/TKukRiWh+AJSIyLZVKvVIVP1Zgwo/myaV9rvv4dPae9kejel23FxbeC8Df74ZAv1JXm7hi8lVERLMrFU+dgrHcbxRYst8NIvc6XvbL093fyOdMHdf9kVjy/gNv0c+nahO38TOoRBSl+mTybaq5Xx4QUsiPj4nXXmTiHEZiCgCO637TElw68bhCP/Tk40+0NzQ0vMLUuYiIpmLVqlV2Kh6/LvCDHwGYs9+NIr9dtHTx6vb29pyJcxmLKQD0e96NItYlAIL9b9HTgpGxzvra5DtMno+I6GCaksn6Jx9/ol0VlwGQ8bcJ5JGXHnXkmzo6OnaZOp/RmAKA42XvEEveJSIj448rdGmA4Pt18fh/pVKpaX91i4hoMq3x1upUPPm5sUDXAXraAXcQ3HN0ovYf165du9vkeY3HFAAc131IbetUATIH3Kh4C3J+dyqR+GpTIhHq96mJiCZqjbdW1yUSH9qAgT7V4CpVrRp/u4iMwpIPZzzvfaae2o83IzEFgEwm04GK2Iki0jbxNlWt0kAvGVP0p2oT307FU62qKpPtQ0R0KI2NjYlUPH71sxjwEOhtk11KT4CM2tZrMq57+0zNEZupjQFgzwdgV6cSiXci0FsU2O9NKFWtAHAeNHdeKpEcqIsnv2eJ/mLB4sX/Y/K1DCIqHaoqjcnk8kDldIX+Y2545DQAMu7b7fuIyJhCvjxnwbxrurq6ds7kXDMa070c132oubn5v0d37LpaBR+e+PAbAKBaC+inA8Wnt23eMpqKxzsArBegF2o5VkwGVXVIfXuHbfv+gWcholKhquIH9hyx/PkQma8BjlWgURA01scTJ7/4EacD47k/+SVi9kcyjvPn2Zh5VmIKAN3d3TsAfKqpqenmseHhTyLQ9x/4LYQXqWolgJUAVr74rytAsO8VjgABU0pUBnLQABgfzcPlEwAg+EnMtr/Qm8n8zwwNNqkZe830YNavX7/Rcd1PxGqqawXWJ0Qk1BVaiIj2EpHnLchtllSckPG8t852SIFZfGQ6UU9Pz2YANwO4uTGRWJ4L8E4Ap4vgVXteSyUiOjiRfkAeFdEfL1y8+L87OjrGohwnspiO1+u6XQC6AFy1fPnyubuHhl6jKs2KoFGAZQp5BaDzRTH/YC8NEFFpEZERqO5QwRBUXhDRPgC9EOmBbT/mOM6GfXd23egG3aMgYjrennfcfr7nnwOoqqxevXrWX54gotnV1tZWVO+OFFxMD0dEFBOvUEVEFDE+wiMiMoAxJSIygDElIjKAMSUiMoAxJSIygDElIjKAMSUiMoAxJSIygDElIjKAMSUiMoAxJSIygDElIjKAMSUiMoAxJSIygDElIjKAMSUiMoAxJSIygDElIjKAMSUiMoAxJSIygDElIjKAMSUiMoAxJSIyIBb1AGGlUqlXIpdbpYrXCdCowGIACsEmAH+GyK+qRR7szmafiXpWIip9RRfTxmTypJyv1+tY7sy9x3T8HRRxAHGovnUYekMqnnjIqqy4rK+vLzvbsxJR+Siqp/n1icSVOT/4A6BnHv7eAABLVVf7o6PddYnE+TM6HBGVtaKIaUtLS0UqnvheEOg1CDOzohqB3puKJ79ofjoioiKJ6eDmrbep6urp7qMaXJqKJz9uYiYiovEKPqZ1icTF0OD9pvZTDW6qq637W1P7EREBBR7ThoaGpVDcZHhbGxLc1draWnRvvhFR4SromPojYx+F6kLjG6vWbxgYeLfxfYmobBVsTNPptCXQfzrM3XwRtIsgLZZcZAk+IJZcB8gTmPCJqQMoLjI2LBGVvYJ9qnv//fevUODlB72D4D8qUH1Zj9fjTXLrFfXx+hWKsZtVMenro6p6WiqVWuA4znZDIxNRGSvYR6bq+ycd5CbfEnwg43nnHCSkAIB+r7/z3DVrzhSxbjjIXWzkcidMe1AiIhRwTAWonfS4WJ/q97y7prJHOp0OHC/7GYg16f1VZNJzEBHlq2BjqipzJx4Tkd84XvbL+e4lMeujEBmYeNxSmRN2PiKi8Qo2poJg14FH9aowezmOMwLBdROPB6KTnIOIKH8FHFPs/0hS5Llz16z5bdj97IqKHwDw99tS9YBHq0REYRRsTAPbfmL/I9qRTqeDsPv19fW9IIA37pC/0LI6w+5HRDRewcb0vPPO+xOAjXv/LsBzBrb9vz1EHuvIZrcZ2JOIqHBjmk6nAxHcs++AyoLp7qn4vz1s6Denux8R0V4FG1MAmGPbt4jIEACooH46e7W0tFQIEAcAATLzlyx5wMCIREQACjymXZnMJkAuBQCoLm9OJo8Nu9fQ1q2vV+g8AIFY8sGOjo4xU3MSERV0TAHA8bJ3COSbADASBKGvReoHwb8CgCW4rN91f25qPiIioAhiCgBV8+ZcAsHDgFySqk3l/RXQhtq6f4TiLWLJzf2ed+NMzEhE5a0oYtrd3T3quO7ZqrhRxf/hsviy+FTXNiQSrwrgf0Msudhx3U/M4JhEVMaKIqYAICKaGXCvFLXfPYbhL9Unk393qPun02krlUhc6Kt+zLbkVMd1756tWYmo/BTsJfgOxhlw1gI4uz5evyKVSLzRBgZ82964cOHC3du2bbPm5ebV7IjteMV3vv3tBGy7PeM4/AgUEc24oovpXv1ef+dBbhoBMAige9aGIaKyVzRP84mIChljSkRkAGNKRGSAlcvl8v4mkKhUzMQwRERRG4nF8n4vSUVz1rnnnrsj34UiOi/fNURERWF0dH6+S2y1hqx0Oh0IsDOfhYFiab4nIyIqBjnLWpLvGrV0aO9rpnld11OgDfmejIioGFg+8u6bJTJoAYCKZPJaqXJcvicjIioGKsHx+a6J+dUZCwBE0ZPXyaBHp1KpunxPSERU8AJtzefuIrK92+v+64uPTIHevE/o+2/Oew0RUQE7LpF4mQIr8lmzt58WAMRi1u/zPqvquXmvISIqYMMq5yDPz99bit9j76J5ixY9LpC8PiKlilOWJZN5v7ZARFSIVFWgwUV5rxP9JbAnph0dHWMqmvdv0o8FweX5riEiKkSpROrtCjTnuSyYh0W/BsY9nLVg/SjvsytWp1KpE/NeR0RUQFpbW2Oi/ufzXSeC33R6nYPAuJhWz5/7PREZyXMvCzn/jnQ6ze/4E1HR+svAwMdDPCqFwL5375/tvX/YtGnT8OKFR6wA8Mo893vFuqc6dcvg4K/zHYSIKGr18foViuAB5H995112deWFmzdvHgUmvGtlx6yvhRlGFVfVxev4USkiKirLli1bopprU9WqvBeL3N/b2zu096/7xbQ3k3lUBGtDzGSJ+g81JBKvCrGWiGjWLV++fG5ueOTHCk3lu1YguVhV5RfHHzvgtU6xrC+EGUyBub7iZ6l4/PVh1hMRzZbm5ubFu7Zv/4WqvjrUBoIHent73fGHDohpfzb7YxG0hzqB6kJAfppKJC4MtZ6IaIY11dUdN7xz12OqOCXkFrtjqLp64sFJ34UXrbhERPK+aDQAqGqVBnp3XTz+QCqVekmYPYiITEun01ZdIvGh0Zz/OFQbw+4jkM/3eD3exOP2JPfFlm1bXli8aNEcAKeFPSGA4xEEFy09YtFwY1NT14YNG3LT2IuIKLSGZPKMzic7H4TqhQBC/1KICHqq5s09//nnn/cPuO1gi5qbmyuHd+x6DNCWsCceN8FzArkTMes+x3Hyu9wfEVEIjY2N84OR3NmK4AOhXxsdR0RGoPZKZ8D506S3H2pxQ0ND0h8de/LF10LNEJGnAH3Ugv14oNIbq4k9Y9v2UHd396ipcxBR+Vi1apWd7eiYNyjyEku1UQMsB/RvVfU0ADWmziNiXeJ42TsOevvhNkglEmdpoA/jIC8JGBTM8P5EVJpm/huYIvdmPHfNIe8ylX1SicRFGug3jAxFRFRMBD85Jh7/+/b29kO+7zOlR5tbBgefXHLE4lFAzzAzHRFR4RPgsUVLl5y1du3aw163ZMpP3bcMbv3d0iMWbVXgzZjiI1oiomIlgv+es3DBWZ2dnbumcv+8XgfdMjj4h6VHLO6D4Kx81xIRFQuBfGfh0iXv7uzsHJ76mhAaksmTAz/4ngKJMOuJiAqRiIwCcqnjZW/Jd22od8H6stk/zpNFJwrk+2HWExEVGgGyliWnhQnpnvXTUxev+wcguBWqx053LyKi2SYioyK4aemRR35h7dq1u0PvY2KYlpaWOYMvbPkMBB8x+QF/IqIZpBD8MCZyWa/r5v9z9xMYfVe+JZlcuF31wxrgowpdanJvIiITBJJT0bZK275ufSbztLl9Z0Bzc3Pl2I7hvwvEPx+Qt6pq5Uych4hoqkTQCVjfrhZ94GnXfc74/qY3nCiVSi2QIHidBsHpAFoVaIKieqbPS0RlLYDgGVH5H0AejUnlo5NdNs+kWf/wfTqdtr773e/W5kZyjTb8l/ki80VlvqrWRDEPERU3y8KoqgxBdEgC2WpZ6iw+8sj+6byZFMb/B+sM0/Xs0SbwAAAAAElFTkSuQmCC;" parent="1" vertex="1">
          <mxGeometry x="200" y="450" width="70" height="90" as="geometry" />
        </mxCell>
        <mxCell id="9OJOCxq-4V8C3ikbFelk-7" value="Splunk" style="text;html=1;align=center;verticalAlign=middle;resizable=0;points=[];autosize=1;strokeColor=none;fillColor=none;fontFamily=Georgia;fontStyle=2;fontSize=16;" parent="1" vertex="1">
          <mxGeometry x="350" y="400" width="70" height="30" as="geometry" />
        </mxCell>
        <mxCell id="9OJOCxq-4V8C3ikbFelk-8" value="" style="shape=image;verticalLabelPosition=bottom;verticalAlign=top;imageAspect=0;image=data:image/png,iVBORw0KGgoAAAANSUhEUgAAAVMAAAG2CAYAAADCwmVFAAAACXBIWXMAAC4jAAAuIwF4pT92AAAE7mlUWHRYTUw6Y29tLmFkb2JlLnhtcAAAAAAAPD94cGFja2V0IGJlZ2luPSLvu78iIGlkPSJXNU0wTXBDZWhpSHpyZVN6TlRjemtjOWQiPz4gPHg6eG1wbWV0YSB4bWxuczp4PSJhZG9iZTpuczptZXRhLyIgeDp4bXB0az0iQWRvYmUgWE1QIENvcmUgOS4xLWMwMDEgNzkuYThkNDc1MywgMjAyMy8wMy8yMy0wODo1NjozNyAgICAgICAgIj4gPHJkZjpSREYgeG1sbnM6cmRmPSJodHRwOi8vd3d3LnczLm9yZy8xOTk5LzAyLzIyLXJkZi1zeW50YXgtbnMjIj4gPHJkZjpEZXNjcmlwdGlvbiByZGY6YWJvdXQ9IiIgeG1sbnM6eG1wPSJodHRwOi8vbnMuYWRvYmUuY29tL3hhcC8xLjAvIiB4bWxuczpkYz0iaHR0cDovL3B1cmwub3JnL2RjL2VsZW1lbnRzLzEuMS8iIHhtbG5zOnhtcE1NPSJodHRwOi8vbnMuYWRvYmUuY29tL3hhcC8xLjAvbW0vIiB4bWxuczpzdEV2dD0iaHR0cDovL25zLmFkb2JlLmNvbS94YXAvMS4wL3NUeXBlL1Jlc291cmNlRXZlbnQjIiB4bWxuczpwaG90b3Nob3A9Imh0dHA6Ly9ucy5hZG9iZS5jb20vcGhvdG9zaG9wLzEuMC8iIHhtcDpDcmVhdG9yVG9vbD0iQWRvYmUgUGhvdG9zaG9wIDI0LjYgKFdpbmRvd3MpIiB4bXA6Q3JlYXRlRGF0ZT0iMjAyMy0xMS0xNlQwMDo0NTo1MyswODowMCIgeG1wOk1ldGFkYXRhRGF0ZT0iMjAyMy0xMS0xNlQwMDo0NTo1MyswODowMCIgeG1wOk1vZGlmeURhdGU9IjIwMjMtMTEtMTZUMDA6NDU6NTMrMDg6MDAiIGRjOmZvcm1hdD0iaW1hZ2UvcG5nIiB4bXBNTTpJbnN0YW5jZUlEPSJ4bXAuaWlkOjI0ZmYzNjJhLWE4ZDYtYTg0OS04ODAxLWYwNDY3YzRmOGY1OSIgeG1wTU06RG9jdW1lbnRJRD0ieG1wLmRpZDoyNGZmMzYyYS1hOGQ2LWE4NDktODgwMS1mMDQ2N2M0ZjhmNTkiIHhtcE1NOk9yaWdpbmFsRG9jdW1lbnRJRD0ieG1wLmRpZDoyNGZmMzYyYS1hOGQ2LWE4NDktODgwMS1mMDQ2N2M0ZjhmNTkiIHBob3Rvc2hvcDpDb2xvck1vZGU9IjMiPiA8eG1wTU06SGlzdG9yeT4gPHJkZjpTZXE+IDxyZGY6bGkgc3RFdnQ6YWN0aW9uPSJjcmVhdGVkIiBzdEV2dDppbnN0YW5jZUlEPSJ4bXAuaWlkOjI0ZmYzNjJhLWE4ZDYtYTg0OS04ODAxLWYwNDY3YzRmOGY1OSIgc3RFdnQ6d2hlbj0iMjAyMy0xMS0xNlQwMDo0NTo1MyswODowMCIgc3RFdnQ6c29mdHdhcmVBZ2VudD0iQWRvYmUgUGhvdG9zaG9wIDI0LjYgKFdpbmRvd3MpIi8+IDwvcmRmOlNlcT4gPC94bXBNTTpIaXN0b3J5PiA8L3JkZjpEZXNjcmlwdGlvbj4gPC9yZGY6UkRGPiA8L3g6eG1wbWV0YT4gPD94cGFja2V0IGVuZD0iciI/PoIWUd0AACaJSURBVHic7d17fFx1nf/x9+ecya132qqgQGYmk6Qx0C0ElApqFvC6su6KraJc6gKrsl7XCwICIygIrAiCAoouCOJKUPy5uK43jJeligRDSmwuZ+acQN1KoW3a9JLLnPP5/UHbTdO0zZx8kzOX9/Px4PFoz8z3ez4PHvB6zPWMYJa0tLTMGdq69TUaBM0BsEyARiheBpH5Cp0vkBoAMlvzEFGJUIwqdAgiQwJshcIRC70K9FgVFY/19fX9ZTbGmNF4NSWT9WNBcI5CzhTg1apaOZPnIyI6gEivQB8VkYffe8EFv0yn08GMnMb0hitXrqx5YePG8xVYo4pTTO9PRBSWAH+BWPfbVRV39fb2uob3NqOxsXF+MDLywQDyCai+1NS+RESmCSSngu/EBNf3um6vmT2nSVWlPl73PkBvUOhSE0MREc2SQAR31cyff8W6deu2TmejacU0lUo1Yyz3dQVeM519iIgiJbJJBJ90XPe+0FuEXZhKJC7SQL8CoCbsHkREhUQED1TNnfv+7u7uHXmvzXfBypUra57fuPFuVbwn37VERAVPpE9i9jscx+nOa1k+d14RX7FoSLc9Auip+U1HRFREBIO2ZZ3Vl83+bupLpqixsfHlueHRnwJ6XLjpiIiKym6x5F2O6/7nVO5sTeVOxx9//BH+8MjPGFIiKiM1UDzUkEyeMZU7HzamK1eurNm9fegRBZqnPxsRUfFQ1cog0Ifr6upaDnffwz7NT8UTD6rqKjOjjTuxyLOq6BXRZxTWkCDYDUBNn4eISpxIpSrmA/oSUTRCJGX8q+siz1XWVJ+wfv36jQe9y6HWpxKJf9FAbzczi4xA8YhAfhCbU/WrQw1FRBTWypUrazY/99ypgepbVPU9UBxpYl8RtJ9w8slntrW1+ZPefrCFqdrUCRB/rapWTWsAyAsK3DJnwbyvTfcbBkRE+Vi1apXd+XjH2wPo5YAe9qn64YhYn3O8bHrS2yY7mE6nrfv//Z4/KnBi6JNCcrDwFbuyMt3b2zsUdh8iIhMa4nXv9tW/GcBRYfcQSA4V9orJPoM6aUzrEokPIdDbwp8QWdu23tWbzT4Rdg8iItNaksmF23y9W6HvDL2JyG8znvu6iYftiQeWLVu2JMj5/w9Adcgz/WKRbZ2xLps1enkrIqLp2rh168iWbYNtSxcfsUsVZyLcV+prlyxZ7GzZunXd+IMHfDTKHxn5OFQXhhlUIA9Vz5vzdx3Z7LYw64mIZkO/694kllwAINSFojXQK9Pp9H793O+RaUsyuXC34rsI8ahURH62cOnis5966qmxMMMREc2mLYODXUuPWLxJoW8LsXzpuq6n/rxlcHDfa6f7lXV7ELw/1KNSkT67qvKdHR0dDCkRFY1+L3snxLo11OJALx3/1/1iqsD78t1PREZswWq+Y09Exah6bs2nAcn7zXIFTmxMJJbv/fu+mDYkkyerYlneGypu6nPdp/JdR0RUCLq7u0ctiV0MYNIP4x+KD5y/98/7YuoHeG++Gwlkw0tffuR1+a4jIiok/V5/pwi+nvfCQM/Z+8d9MRUN3pDvPmrhxrVr1+7OewAiogKjtn29iOT1vo8CL2+qqzsO2BPT5njzkQq8Mq8zi2x76ZFH3p3XGiKiApXJZJ6F4sF81+V8/3RgT0zHMNya7waiaOOjUiIqJWLh3nzXKPC3wJ6YBvCXH/ruk51VH8p7DRFRAXvvBRf8EkB+F2RSHA/siakCjfmsFZGxOQsWTPm3UYiIikE6nQ4gaM9njQLxVCpVZQGAaH4xVUVXV1fXznzWEBEVAwv4fZ5LbACpve/m53VJKgF68jwZEVFRUJG8+2YFwVEvxlRkfn4rMZDvyYiIioGFEH3zZb6VSqWqVLUir4Wq2/M+GRFREZDKyrz75lvBfKuqqmpuvgtVZFe+a4iIikHF6GjefbNU5li+74e5OCp/RZSISpJlWXn3TQE54OLQRESUP8aUiMgAxpSIyADGlIjIAMaUiMgAxpSIyADGlIjIAMaUiMgAxpSIyADGlIjIAMaUiMgAxpSIyADGlIjIAMaUiMgAxpSIyADGlIjIAMaUiMgAxpSIyADGlIjIAMaUiMgAxpSIyADGlIjIAMaUiMgAxpSIyADGlIjIAMaUiMgAxpSIyADGlIjIAMaUiMgAxpSIyADGlIjIAMaUiMgAxpSIyADGlIjIAMaUiMgAxpSIyADGlIjIAMaUiMgAxpSIyADGlIjIAMaUiMgAxpSIyADGlIjIAMaUiMgAxpSIyADGlIjIAMaUiMgAxpSIyADGlIjIAMaUiMgAxpSIyADGlIjIAMaUiMgAxpSIyADGlIjIAMaUiMgAxpSIyADGlIjIAMaUiMgAxpSIyADGlIjIAMaUiMgAxpSIyADGlIjIAMaUiMgAxpSIyADGlIjIAMaUiMgAxpSIyADGlIjIAMaUiMgAxpSIyADGlIjIAMaUiMgAxpSIyADGlIjIAMaUiMgAxrQE1MfrV7TGW6ujnoOonDGmJUA1d9EG9TKp2uQljCpRNBjTEqHAyxXBVxlVomgwpiWGUSWKBmNaoiZGNZVKVUU9E1EpY0xL3N6oYiyXZVSJZg5jWiYYVaKZxZiWGUaVaGYwpmVqXFT5miqRAYxpmVPgFfuiGk9+kFElCocxJQB7oqrB1xhVonAYU9oPo0oUDmNKk2JUifLDmNIhMapEU8OY0pQwqkSHxphSXhhVoskxphTK/0XVdxhVIsaUpkmhR++Nan08+QFGlcoVY0pGKPToQIM7GFUqV4wpGcWoUrliTGlGMKpUbhhTmlETo9rc3FwZ9UxEM4ExpVmxN6ojO3ZlGFUqRYwpzSpGlUoVY0qRYFSp1DCmFKl9Ud25y6mPx9/PqFKxYkypIKjqMYHiTkaVihVjSgWFUaVixZiWBHkSwO6opzBpfFRT8eQHGVUqdIxpCXAGst+aG7PjEOtGERmKeh6TVPUY1eBrfKRKhY4xLRFdmcymjJe9tGrunDgg10IwGPVMJvHpPxU6xrTEdHd3b8kMuFdJLFYrkCtE5PmoZzKJUaVCxZiWKMdxtjsD7nULlyyOC6xPANgY9UwmMapUaBjTEtfR0bHLGcjeLBWxhFjyIYg8E/VMJo2Pal0i8c+MKkWFMS0TjuOMOK771UVLFqfEkosE4kQ9k0mqegwCvWt4565+RpWiwJiWmY6OjjHHdb95wqtOWiaWnCfAn6OeySjVYxlVigJjWqba2tp8x3Xv7/fc48SSVSL4U9QzGcWo0ixjTMuciKjjug85nneiZVtnieD3Uc9kFKNKs4QxpX36s9lHHM9baVnyRhH5TdTzGMWo0gxjTOkA/a77c8dzX2/b1mtF5GdRz2PUhKi2tLRURD0SlQbGlA6qL5v9neO5b7Jt61Ui8p8ANOqZjNkT1cHNWxxGlUxgTOmw+rLZPzqe+/cxS1aISBuAIOqZjNk/qhczqhQWY0pT1uu6XY7nrralslkg9wkkF/VMxrwY1a8Pbt7Sz6hSGIwp5a3P6+txBtzzraqKRoHcLSKjUc9kjGoto0phMKYUWl9fX9YZcC9GzK4TyO0QDEc9kzGMKuWJMaVpcxxngzPgfrhGJG5B/k0gO6KeyRhGlaaIMSVjnnbd5/oH3E/FaqriliVfgMi2qGcyhlGlw2BMybienp7N/a772UWW1FqWXCnA5qhnMoZRpYNgTGnGdGSz2/pd9/NzFi6otSz5NAR/jXomYxhVmoAxpRnX1dW1s991bzoG8QQs+YiIPBv1TMaMi2oqkbiIUS1fjCnNmnavfTjjurdVzZ2TgiX/LEA26pmMUa3VQL8xuHlzH6NanhhTmnXd3d2jGdf9xtGJeCMsuUAEPVHPZIwizqiWJ8aUItPe3p7LuO63z12zplkseRdEuqKeyRhGtewwphS5dDodOK77oONmV4glb4fIH6OeyRhGtWwwplQw9lyo+kcZz32VCN4MyO+inskYRrXkMaZUkBzP+2lmwH2tCFoB+UXU8xjDqJYsxpQKmuN5v84MuG+wBKcA8uOo5zGGUS05jCkVhX7P+0NmwH2bJRUnCOT7KJULVe8f1QsZ1eLFmFJR6ff6O50B951SETtOBA8A8KOeyYgXo3r3thc29zKqxYkxpaLkOM6fHc97L2L2MhF8S0TGop7JBAUS46Pa2toai3ommhrGlIpaJpNxHM+7sMqSlFjyNREZiXomE/ZGdYPr9TGqxYExpZLQnc0+47juv1TUVCdE8GUAu6KeyQRGtXgwplRS1q9fv9HxvH+1qyprRXC9iGyPeiYTGNXCx5hSSerr63vB8bzL52FhrQiuFmBL1DOZsC+q3jMXRz0L7Y8xpZLW6XUOOp53jV1dFRfBZyCyKeqZjFBI1CPQ/hhTKgu9vb1Djufd8NKjjoxbgo8J8JeoZ6LSwphSWVm7du3ufs+7FRWxOkusD0LgRT0TlQbGlMqS4zgj/V72zmPi8XpL7PdBpC/qmai4MaZU1trb23P9Xuae89Zc0GSLfQ4gT0c9ExUnxpQIL15Ttc/L/IfjZZfbsN8BSEfUM1FxYUyJxhER7RvIPJwZcE+yYb9VgMeinomKA2NKdBB9A5mfOAPeqYB9ugh+FfU8VNgYU6LDyAxkfuV43umI2adC8JOo56HCxJgSTVEmk3ks43lvRcw+CYKHUSrXVCUjGFOiPGUymY6M572jMmYvh+A/AARRz0TRY0yJQlqfyTyd8bxzYjH7DSiRq1RReLzyDFFITYlE7Rjwad8PLgJQGfU8FC3GlChPDQ0NSX907NIxxftUlT8vQgAYU6Ipa0om68eC4LJgZOw8QGN894nGY0yJDqO+tr5Jkbts1A/eA8Dmm/g0GcaU6CCa6uqOG/X9ywMdexf4Zi0dBmNKNEF9vH6Fau6K0Zx/NsCLMNPUMKZEezQmkyf5QXBFoGP/EPUsVHwYUyp7qXjqFKh/Rc4P3hb1LFS8GFMqWw3J5GlBoJ9Vzb0p6lmo+DGmVHbqE4nXBQGu8v3gjKhnodLBmFLZaEgmz/B9TQeBnhb1LFR6GFMqeal4/E0A0r4fnBL1LFS6GFMqWalE4iwNcJWqnhT1LIbtssBfVS00jCmVFFWVVCL1doF/tQa6Iup5TBJgJyy5c45l3diVyWyKeh7aH7/VQSUhnU5bqUTinalE8imo/7AqVkQ9kykC2QHITaiIJRzX/SRDWpj4yJSK2qpVq+zOP3asvv+ee65URVPU85gkIkOAfjVWXfVvPT09m6Oehw6NMaWi1NraGtswMHDOk3984rNQbYh6HpNEZDsEt1fNmfOl7u7uLVHPQ1PDmFJRaWlpqdi+eeu5G1zvswoko57HKJFtUNxWM3/ezevWrdsa9TiUH8aUikJzc3Pl8K5dawY3b7kcqrVRz2OUYFBg3ToPC27pHOgcjHocCocxpYLWGm+t3qDP/NPIjl2XAXp01POYJMAWCG5FLHaL4zjbo56HpocxpYK0cuXKmhc2bvznZ9W7FMBRUc9jkgCbFfJlu7ryK729vUNRz0NmMKZUUJYvXz5357ahD2za+NdPQfGyqOcxSSAvQOTmqrk1t3V3d++Ieh4yizGlgtDY2DjfHxm5ZNe2oU8CurSkfhlEZJNAb56zYP7tXV1dO6Meh2YGY0qRakkmF25X/bA/PPJxBRaX1O8riTwHwb8tWrz4ax0dHbuiHodmFmNKkTj++OOP2D2086ODgX4MqgujnscowV9FrZtectTL7li7du1uuG7UE9EsYExpVjU0NCzVsbGP7R7a8RFVnR/1PCYJ8L8Q66ajceyd7QPtw85ANuqRaBYxpjQrltfVvXSnr58IRkb/RYG5Uc9jkgB/UUtugG1/3XGcEQeMaDliTGlGNTU1HTU2PPzJnTn/AwDmlNArohCRZyG4AbZ9d8ZxRqKeh6LFmNKMSKVSR8uY/+nR3bsvhqI66nmMEhmwIF+snFvzre7u7tGox6HCwJiSUU2JRO2Y6qXI+RcG0MpSenMeAg8i1y9avPjfOzo6xqIehwoLY0pGNDQ0JIORsc+MKdaooqKUPuIkQBaWXH90be097e3tOb47T5NhTGlampLJ+tEguDwYGTtXobESaigE4ojIda+IH3tfe3t7zmFE6RAYUwqlId6wLNCxK0b94BwAtpZURaXPhl73NyefdH9bW5vf7/HdeTo8xpTy0lRXd9yo71/h6+hqlNrP3oj0iuALJ5x00gNtbW1+n+dFPREVkdL6n4FmTH28fkWqNvHQaM7vguLdKKH/dkSw3oL13vPWXPBKx3Xva2tr86OeiYpPyfwPQTOjrq6uJRVP/DDQsT8p9GwAEvVMpgjQbYt9zrlr1hzXP5B9IJ1OB1HPRMWLT/NpUvXx+KsD4Crk/LeW0KuhLxJZJ4Jr+7PZh0RE0+l01BNRCWBMaT8NyeRpQaBXBqpvjHoW00TkKbHk2r5M5gcioiIl8yCbCgBjSgCAVDz+elVc5fvB6VHPYpoI/mSpfW2v6/yQEaWZwpiWuYZk8kw/0KtU9bVRz2KedIiFaxzX/REAMKI0kxjTMlUXr3uzwL/K94OVUc9imog8LpZc25/NPhL1LFQ+GNMyk0okzlLFlVD/5FJ7Y0kEv7fUurbPy/5X1LNQ+WFMy4CqSmM89Q+B+FdqoCdEPY9pAjwGwTWO5/006lmofPFzpiUsnU5bqURiVSqRfMqH/wNVlFhI5XeWJW90BrxTGVKKGmNagtLptFVfm3zP/ffc87QG+iBUj496JpNE5DexmH1GZsB9bb/r/jzqeYgAPs0vKa2trbFnBwbec989914BaEMpXXsEAETQDiDteO6vo56FaCLGtAS0tLRUbHth63kbXO9yAHVRzzMDHrUtSfe57m+jHoToYBjTErBt8+YbFPh41HOYJiI/V9tKZzKZx6KehehwGNNSoFJZUle2F/kpYKcdz/l91LMQTRVjSoVD8F+2yOf6XPfxqEchyhdjSpETyCO2LZ/rzWafiHoWorAYU4qKish/ImZ/znGcJ6Mehmi6GFOabQrBDy1UXNPv9XdGPQyRKYwpzRYVyA9sC9f0um5X1MMQmcaY0kwLROT7FbZ1zfpM5umohyGaKYwpzZQAggclFrvWcZw/Rz0M0UxjTMk0XwTfs1B5bZ/X1xP1MESzhTElU3yBPBCz5fM92Wxf1MMQzTbGlKZFIDkVfAe29Xknk3GinocoKowphSKQHETvQ8z+QsZxMlHPQxQ1xpTyIiJjUNxrV1de19vb60Y9D1GhYExpSkRkVIF7KgTXrffcgajnISo0jCkd0osR1W9VWXJ9dzb7TNTzEBUqxpQmJSIjUNyNmP3FjONsiHoeokLHmNL+BMOWyjesqsov9vb2/m/U4xAVC8aU9totgrsqampuXL9+/caohyEqNowp7RJL7qwGbnzadZ+LehiiYsWYlikBdgrkjpqYdVNXJrMp6nmIih1jWmYEsgMiX0XM+lK/4zwf9TxEpYIxLRMiMgTo7bHqqi/19PRsjnoeolLDmJY4Edkugtsq58y5ubu7e0vU8xCVKsa0VIlsE8itNfPn3rJu3bqtUY9DVOoY01IjGBTglnlYeGun1zkY9ThE5YIxLRECbBFLvqy2/RXHcbZHPQ9RuWFMS4CI3mdVVV3W29s7FPUsROWKMS0B/Z73h6hnICp3VtQDEBGVAsaUiMgAxpSIyADGlIjIAMaUiMgAxpSIyADGlIjIAMaUiMgAxpSIyADGlIjIAMaUiMgAxpSIyADGlIjIAMaUiMgAxpSIyADGlIjIAMaUiMgAxpSIyADGlIjIAMaUiMgAxpSIyADGlIjIAMaUiMgAxpSIyADGlIjIAMaUiMgAxpSIyADGlIjIAMaUiMgAxpSIyADGlIjIAMaUiMgAxpSIyADGlIjIAMaUiMgAxpSIyADGlIjIAMaUiMgAxpSIyADGlIjIAMaUiMgAxpSIyADGlIjIAMaUiMgAxpSIyADGlIjIAMaUiMgAxpSIyADGlIjIAMaUiMiAsDEVo1MQERWIIAhC9S1UTEVlbph1RESFbrSiIlTfwj0yFZ0fah0RUYGTsbF5YdaFe2QagDElopKkIgvCrAsVUxXEw6wjIip0AVAbZl24mAKNYdYRERU69TVU30K+AYVkS0tLRZi1RESFTATLwqwL+chUY9s3bz4xzFoiokKmwKvDrAv9oX2FdXrYtUREhSiVStVB9dgwa8PHVJUxJaKSor4fumuhYyqC1zc0NCwNu56IqNCI4uywa6fzyLTCHxt7d9j1RESFpKmp6ShVPTPs+uld6CTABdNaT0RUIHLDw+cCsMOun+ZVo/Sk+kTiddPbg4goWi0tLRWq+PB09pj2JfhU8dnp7kFEFKVtW7acr6rHTGcPAzHVN9TV1b1muvsQEUWhubm5EoFeNt19jFwcWnz/9lWrVoV+rYGIKCrDO3Z9SoG66e4T7uukgvXj/66KE5584olLpjsMEdFsWhZfFgf0ivHHJvZtqkI+MrW+DpGu/QYIcN2yZLIh3H5ERLNr1apVdg7D/w6gZtxhX0Q+Gma/kJfg0xxs64MAdN8x6LxcoA+2xlurw+xJRDSbnnz8iatV0Tr+mAhuq7Gsp8LsF/o100wm8xgEd40/pqp/swHeV8PuSUQ0Gxpq694y8ek9BB5isavD7jmtN6COQfzjE5/uq+Kf6moT10xnXyKimVIfj786gN+Gcf0TkTFb5F2O42wPu++0YtrutQ/HBKsFsmP/W/TKukRiWh+AJSIyLZVKvVIVP1Zgwo/myaV9rvv4dPae9kejel23FxbeC8Df74ZAv1JXm7hi8lVERLMrFU+dgrHcbxRYst8NIvc6XvbL093fyOdMHdf9kVjy/gNv0c+nahO38TOoRBSl+mTybaq5Xx4QUsiPj4nXXmTiHEZiCgCO637TElw68bhCP/Tk40+0NzQ0vMLUuYiIpmLVqlV2Kh6/LvCDHwGYs9+NIr9dtHTx6vb29pyJcxmLKQD0e96NItYlAIL9b9HTgpGxzvra5DtMno+I6GCaksn6Jx9/ol0VlwGQ8bcJ5JGXHnXkmzo6OnaZOp/RmAKA42XvEEveJSIj448rdGmA4Pt18fh/pVKpaX91i4hoMq3x1upUPPm5sUDXAXraAXcQ3HN0ovYf165du9vkeY3HFAAc131IbetUATIH3Kh4C3J+dyqR+GpTIhHq96mJiCZqjbdW1yUSH9qAgT7V4CpVrRp/u4iMwpIPZzzvfaae2o83IzEFgEwm04GK2Iki0jbxNlWt0kAvGVP0p2oT307FU62qKpPtQ0R0KI2NjYlUPH71sxjwEOhtk11KT4CM2tZrMq57+0zNEZupjQFgzwdgV6cSiXci0FsU2O9NKFWtAHAeNHdeKpEcqIsnv2eJ/mLB4sX/Y/K1DCIqHaoqjcnk8kDldIX+Y2545DQAMu7b7fuIyJhCvjxnwbxrurq6ds7kXDMa070c132oubn5v0d37LpaBR+e+PAbAKBaC+inA8Wnt23eMpqKxzsArBegF2o5VkwGVXVIfXuHbfv+gWcholKhquIH9hyx/PkQma8BjlWgURA01scTJ7/4EacD47k/+SVi9kcyjvPn2Zh5VmIKAN3d3TsAfKqpqenmseHhTyLQ9x/4LYQXqWolgJUAVr74rytAsO8VjgABU0pUBnLQABgfzcPlEwAg+EnMtr/Qm8n8zwwNNqkZe830YNavX7/Rcd1PxGqqawXWJ0Qk1BVaiIj2EpHnLchtllSckPG8t852SIFZfGQ6UU9Pz2YANwO4uTGRWJ4L8E4Ap4vgVXteSyUiOjiRfkAeFdEfL1y8+L87OjrGohwnspiO1+u6XQC6AFy1fPnyubuHhl6jKs2KoFGAZQp5BaDzRTH/YC8NEFFpEZERqO5QwRBUXhDRPgC9EOmBbT/mOM6GfXd23egG3aMgYjrennfcfr7nnwOoqqxevXrWX54gotnV1tZWVO+OFFxMD0dEFBOvUEVEFDE+wiMiMoAxJSIygDElIjKAMSUiMoAxJSIygDElIjKAMSUiMoAxJSIygDElIjKAMSUiMoAxJSIygDElIjKAMSUiMoAxJSIygDElIjKAMSUiMoAxJSIygDElIjKAMSUiMoAxJSIygDElIjKAMSUiMoAxJSIyIBb1AGGlUqlXIpdbpYrXCdCowGIACsEmAH+GyK+qRR7szmafiXpWIip9RRfTxmTypJyv1+tY7sy9x3T8HRRxAHGovnUYekMqnnjIqqy4rK+vLzvbsxJR+Siqp/n1icSVOT/4A6BnHv7eAABLVVf7o6PddYnE+TM6HBGVtaKIaUtLS0UqnvheEOg1CDOzohqB3puKJ79ofjoioiKJ6eDmrbep6urp7qMaXJqKJz9uYiYiovEKPqZ1icTF0OD9pvZTDW6qq637W1P7EREBBR7ThoaGpVDcZHhbGxLc1draWnRvvhFR4SromPojYx+F6kLjG6vWbxgYeLfxfYmobBVsTNPptCXQfzrM3XwRtIsgLZZcZAk+IJZcB8gTmPCJqQMoLjI2LBGVvYJ9qnv//fevUODlB72D4D8qUH1Zj9fjTXLrFfXx+hWKsZtVMenro6p6WiqVWuA4znZDIxNRGSvYR6bq+ycd5CbfEnwg43nnHCSkAIB+r7/z3DVrzhSxbjjIXWzkcidMe1AiIhRwTAWonfS4WJ/q97y7prJHOp0OHC/7GYg16f1VZNJzEBHlq2BjqipzJx4Tkd84XvbL+e4lMeujEBmYeNxSmRN2PiKi8Qo2poJg14FH9aowezmOMwLBdROPB6KTnIOIKH8FHFPs/0hS5Llz16z5bdj97IqKHwDw99tS9YBHq0REYRRsTAPbfmL/I9qRTqeDsPv19fW9IIA37pC/0LI6w+5HRDRewcb0vPPO+xOAjXv/LsBzBrb9vz1EHuvIZrcZ2JOIqHBjmk6nAxHcs++AyoLp7qn4vz1s6Denux8R0V4FG1MAmGPbt4jIEACooH46e7W0tFQIEAcAATLzlyx5wMCIREQACjymXZnMJkAuBQCoLm9OJo8Nu9fQ1q2vV+g8AIFY8sGOjo4xU3MSERV0TAHA8bJ3COSbADASBKGvReoHwb8CgCW4rN91f25qPiIioAhiCgBV8+ZcAsHDgFySqk3l/RXQhtq6f4TiLWLJzf2ed+NMzEhE5a0oYtrd3T3quO7ZqrhRxf/hsviy+FTXNiQSrwrgf0Msudhx3U/M4JhEVMaKIqYAICKaGXCvFLXfPYbhL9Unk393qPun02krlUhc6Kt+zLbkVMd1756tWYmo/BTsJfgOxhlw1gI4uz5evyKVSLzRBgZ82964cOHC3du2bbPm5ebV7IjteMV3vv3tBGy7PeM4/AgUEc24oovpXv1ef+dBbhoBMAige9aGIaKyVzRP84mIChljSkRkAGNKRGSAlcvl8v4mkKhUzMQwRERRG4nF8n4vSUVz1rnnnrsj34UiOi/fNURERWF0dH6+S2y1hqx0Oh0IsDOfhYFiab4nIyIqBjnLWpLvGrV0aO9rpnld11OgDfmejIioGFg+8u6bJTJoAYCKZPJaqXJcvicjIioGKsHx+a6J+dUZCwBE0ZPXyaBHp1KpunxPSERU8AJtzefuIrK92+v+64uPTIHevE/o+2/Oew0RUQE7LpF4mQIr8lmzt58WAMRi1u/zPqvquXmvISIqYMMq5yDPz99bit9j76J5ixY9LpC8PiKlilOWJZN5v7ZARFSIVFWgwUV5rxP9JbAnph0dHWMqmvdv0o8FweX5riEiKkSpROrtCjTnuSyYh0W/BsY9nLVg/SjvsytWp1KpE/NeR0RUQFpbW2Oi/ufzXSeC33R6nYPAuJhWz5/7PREZyXMvCzn/jnQ6ze/4E1HR+svAwMdDPCqFwL5375/tvX/YtGnT8OKFR6wA8Mo893vFuqc6dcvg4K/zHYSIKGr18foViuAB5H995112deWFmzdvHgUmvGtlx6yvhRlGFVfVxev4USkiKirLli1bopprU9WqvBeL3N/b2zu096/7xbQ3k3lUBGtDzGSJ+g81JBKvCrGWiGjWLV++fG5ueOTHCk3lu1YguVhV5RfHHzvgtU6xrC+EGUyBub7iZ6l4/PVh1hMRzZbm5ubFu7Zv/4WqvjrUBoIHent73fGHDohpfzb7YxG0hzqB6kJAfppKJC4MtZ6IaIY11dUdN7xz12OqOCXkFrtjqLp64sFJ34UXrbhERPK+aDQAqGqVBnp3XTz+QCqVekmYPYiITEun01ZdIvGh0Zz/OFQbw+4jkM/3eD3exOP2JPfFlm1bXli8aNEcAKeFPSGA4xEEFy09YtFwY1NT14YNG3LT2IuIKLSGZPKMzic7H4TqhQBC/1KICHqq5s09//nnn/cPuO1gi5qbmyuHd+x6DNCWsCceN8FzArkTMes+x3Hyu9wfEVEIjY2N84OR3NmK4AOhXxsdR0RGoPZKZ8D506S3H2pxQ0ND0h8de/LF10LNEJGnAH3Ugv14oNIbq4k9Y9v2UHd396ipcxBR+Vi1apWd7eiYNyjyEku1UQMsB/RvVfU0ADWmziNiXeJ42TsOevvhNkglEmdpoA/jIC8JGBTM8P5EVJpm/huYIvdmPHfNIe8ylX1SicRFGug3jAxFRFRMBD85Jh7/+/b29kO+7zOlR5tbBgefXHLE4lFAzzAzHRFR4RPgsUVLl5y1du3aw163ZMpP3bcMbv3d0iMWbVXgzZjiI1oiomIlgv+es3DBWZ2dnbumcv+8XgfdMjj4h6VHLO6D4Kx81xIRFQuBfGfh0iXv7uzsHJ76mhAaksmTAz/4ngKJMOuJiAqRiIwCcqnjZW/Jd22od8H6stk/zpNFJwrk+2HWExEVGgGyliWnhQnpnvXTUxev+wcguBWqx053LyKi2SYioyK4aemRR35h7dq1u0PvY2KYlpaWOYMvbPkMBB8x+QF/IqIZpBD8MCZyWa/r5v9z9xMYfVe+JZlcuF31wxrgowpdanJvIiITBJJT0bZK275ufSbztLl9Z0Bzc3Pl2I7hvwvEPx+Qt6pq5Uych4hoqkTQCVjfrhZ94GnXfc74/qY3nCiVSi2QIHidBsHpAFoVaIKieqbPS0RlLYDgGVH5H0AejUnlo5NdNs+kWf/wfTqdtr773e/W5kZyjTb8l/ki80VlvqrWRDEPERU3y8KoqgxBdEgC2WpZ6iw+8sj+6byZFMb/B+sM0/Xs0SbwAAAAAElFTkSuQmCC;" parent="1" vertex="1">
          <mxGeometry x="310" y="450" width="70" height="90" as="geometry" />
        </mxCell>
        <mxCell id="9OJOCxq-4V8C3ikbFelk-9" value="" style="shape=image;verticalLabelPosition=bottom;verticalAlign=top;imageAspect=0;image=data:image/png,iVBORw0KGgoAAAANSUhEUgAAAVMAAAG2CAYAAADCwmVFAAAACXBIWXMAAC4jAAAuIwF4pT92AAAE7mlUWHRYTUw6Y29tLmFkb2JlLnhtcAAAAAAAPD94cGFja2V0IGJlZ2luPSLvu78iIGlkPSJXNU0wTXBDZWhpSHpyZVN6TlRjemtjOWQiPz4gPHg6eG1wbWV0YSB4bWxuczp4PSJhZG9iZTpuczptZXRhLyIgeDp4bXB0az0iQWRvYmUgWE1QIENvcmUgOS4xLWMwMDEgNzkuYThkNDc1MywgMjAyMy8wMy8yMy0wODo1NjozNyAgICAgICAgIj4gPHJkZjpSREYgeG1sbnM6cmRmPSJodHRwOi8vd3d3LnczLm9yZy8xOTk5LzAyLzIyLXJkZi1zeW50YXgtbnMjIj4gPHJkZjpEZXNjcmlwdGlvbiByZGY6YWJvdXQ9IiIgeG1sbnM6eG1wPSJodHRwOi8vbnMuYWRvYmUuY29tL3hhcC8xLjAvIiB4bWxuczpkYz0iaHR0cDovL3B1cmwub3JnL2RjL2VsZW1lbnRzLzEuMS8iIHhtbG5zOnhtcE1NPSJodHRwOi8vbnMuYWRvYmUuY29tL3hhcC8xLjAvbW0vIiB4bWxuczpzdEV2dD0iaHR0cDovL25zLmFkb2JlLmNvbS94YXAvMS4wL3NUeXBlL1Jlc291cmNlRXZlbnQjIiB4bWxuczpwaG90b3Nob3A9Imh0dHA6Ly9ucy5hZG9iZS5jb20vcGhvdG9zaG9wLzEuMC8iIHhtcDpDcmVhdG9yVG9vbD0iQWRvYmUgUGhvdG9zaG9wIDI0LjYgKFdpbmRvd3MpIiB4bXA6Q3JlYXRlRGF0ZT0iMjAyMy0xMS0xNlQwMDo0NTo1MyswODowMCIgeG1wOk1ldGFkYXRhRGF0ZT0iMjAyMy0xMS0xNlQwMDo0NTo1MyswODowMCIgeG1wOk1vZGlmeURhdGU9IjIwMjMtMTEtMTZUMDA6NDU6NTMrMDg6MDAiIGRjOmZvcm1hdD0iaW1hZ2UvcG5nIiB4bXBNTTpJbnN0YW5jZUlEPSJ4bXAuaWlkOjI0ZmYzNjJhLWE4ZDYtYTg0OS04ODAxLWYwNDY3YzRmOGY1OSIgeG1wTU06RG9jdW1lbnRJRD0ieG1wLmRpZDoyNGZmMzYyYS1hOGQ2LWE4NDktODgwMS1mMDQ2N2M0ZjhmNTkiIHhtcE1NOk9yaWdpbmFsRG9jdW1lbnRJRD0ieG1wLmRpZDoyNGZmMzYyYS1hOGQ2LWE4NDktODgwMS1mMDQ2N2M0ZjhmNTkiIHBob3Rvc2hvcDpDb2xvck1vZGU9IjMiPiA8eG1wTU06SGlzdG9yeT4gPHJkZjpTZXE+IDxyZGY6bGkgc3RFdnQ6YWN0aW9uPSJjcmVhdGVkIiBzdEV2dDppbnN0YW5jZUlEPSJ4bXAuaWlkOjI0ZmYzNjJhLWE4ZDYtYTg0OS04ODAxLWYwNDY3YzRmOGY1OSIgc3RFdnQ6d2hlbj0iMjAyMy0xMS0xNlQwMDo0NTo1MyswODowMCIgc3RFdnQ6c29mdHdhcmVBZ2VudD0iQWRvYmUgUGhvdG9zaG9wIDI0LjYgKFdpbmRvd3MpIi8+IDwvcmRmOlNlcT4gPC94bXBNTTpIaXN0b3J5PiA8L3JkZjpEZXNjcmlwdGlvbj4gPC9yZGY6UkRGPiA8L3g6eG1wbWV0YT4gPD94cGFja2V0IGVuZD0iciI/PoIWUd0AACaJSURBVHic7d17fFx1nf/x9+ecya132qqgQGYmk6Qx0C0ElApqFvC6su6KraJc6gKrsl7XCwICIygIrAiCAoouCOJKUPy5uK43jJeligRDSmwuZ+acQN1KoW3a9JLLnPP5/UHbTdO0zZx8kzOX9/Px4PFoz8z3ez4PHvB6zPWMYJa0tLTMGdq69TUaBM0BsEyARiheBpH5Cp0vkBoAMlvzEFGJUIwqdAgiQwJshcIRC70K9FgVFY/19fX9ZTbGmNF4NSWT9WNBcI5CzhTg1apaOZPnIyI6gEivQB8VkYffe8EFv0yn08GMnMb0hitXrqx5YePG8xVYo4pTTO9PRBSWAH+BWPfbVRV39fb2uob3NqOxsXF+MDLywQDyCai+1NS+RESmCSSngu/EBNf3um6vmT2nSVWlPl73PkBvUOhSE0MREc2SQAR31cyff8W6deu2TmejacU0lUo1Yyz3dQVeM519iIgiJbJJBJ90XPe+0FuEXZhKJC7SQL8CoCbsHkREhUQED1TNnfv+7u7uHXmvzXfBypUra57fuPFuVbwn37VERAVPpE9i9jscx+nOa1k+d14RX7FoSLc9Auip+U1HRFREBIO2ZZ3Vl83+bupLpqixsfHlueHRnwJ6XLjpiIiKym6x5F2O6/7nVO5sTeVOxx9//BH+8MjPGFIiKiM1UDzUkEyeMZU7HzamK1eurNm9fegRBZqnPxsRUfFQ1cog0Ifr6upaDnffwz7NT8UTD6rqKjOjjTuxyLOq6BXRZxTWkCDYDUBNn4eISpxIpSrmA/oSUTRCJGX8q+siz1XWVJ+wfv36jQe9y6HWpxKJf9FAbzczi4xA8YhAfhCbU/WrQw1FRBTWypUrazY/99ypgepbVPU9UBxpYl8RtJ9w8slntrW1+ZPefrCFqdrUCRB/rapWTWsAyAsK3DJnwbyvTfcbBkRE+Vi1apXd+XjH2wPo5YAe9qn64YhYn3O8bHrS2yY7mE6nrfv//Z4/KnBi6JNCcrDwFbuyMt3b2zsUdh8iIhMa4nXv9tW/GcBRYfcQSA4V9orJPoM6aUzrEokPIdDbwp8QWdu23tWbzT4Rdg8iItNaksmF23y9W6HvDL2JyG8znvu6iYftiQeWLVu2JMj5/w9Adcgz/WKRbZ2xLps1enkrIqLp2rh168iWbYNtSxcfsUsVZyLcV+prlyxZ7GzZunXd+IMHfDTKHxn5OFQXhhlUIA9Vz5vzdx3Z7LYw64mIZkO/694kllwAINSFojXQK9Pp9H793O+RaUsyuXC34rsI8ahURH62cOnis5966qmxMMMREc2mLYODXUuPWLxJoW8LsXzpuq6n/rxlcHDfa6f7lXV7ELw/1KNSkT67qvKdHR0dDCkRFY1+L3snxLo11OJALx3/1/1iqsD78t1PREZswWq+Y09Exah6bs2nAcn7zXIFTmxMJJbv/fu+mDYkkyerYlneGypu6nPdp/JdR0RUCLq7u0ctiV0MYNIP4x+KD5y/98/7YuoHeG++Gwlkw0tffuR1+a4jIiok/V5/pwi+nvfCQM/Z+8d9MRUN3pDvPmrhxrVr1+7OewAiogKjtn29iOT1vo8CL2+qqzsO2BPT5njzkQq8Mq8zi2x76ZFH3p3XGiKiApXJZJ6F4sF81+V8/3RgT0zHMNya7waiaOOjUiIqJWLh3nzXKPC3wJ6YBvCXH/ruk51VH8p7DRFRAXvvBRf8EkB+F2RSHA/siakCjfmsFZGxOQsWTPm3UYiIikE6nQ4gaM9njQLxVCpVZQGAaH4xVUVXV1fXznzWEBEVAwv4fZ5LbACpve/m53VJKgF68jwZEVFRUJG8+2YFwVEvxlRkfn4rMZDvyYiIioGFEH3zZb6VSqWqVLUir4Wq2/M+GRFREZDKyrz75lvBfKuqqmpuvgtVZFe+a4iIikHF6GjefbNU5li+74e5OCp/RZSISpJlWXn3TQE54OLQRESUP8aUiMgAxpSIyADGlIjIAMaUiMgAxpSIyADGlIjIAMaUiMgAxpSIyADGlIjIAMaUiMgAxpSIyADGlIjIAMaUiMgAxpSIyADGlIjIAMaUiMgAxpSIyADGlIjIAMaUiMgAxpSIyADGlIjIAMaUiMgAxpSIyADGlIjIAMaUiMgAxpSIyADGlIjIAMaUiMgAxpSIyADGlIjIAMaUiMgAxpSIyADGlIjIAMaUiMgAxpSIyADGlIjIAMaUiMgAxpSIyADGlIjIAMaUiMgAxpSIyADGlIjIAMaUiMgAxpSIyADGlIjIAMaUiMgAxpSIyADGlIjIAMaUiMgAxpSIyADGlIjIAMaUiMgAxpSIyADGlIjIAMaUiMgAxpSIyADGlIjIAMaUiMgAxpSIyADGlIjIAMaUiMgAxpSIyADGlIjIAMaUiMgAxpSIyADGlIjIAMaUiMgAxpSIyADGlIjIAMaUiMgAxpSIyADGlIjIAMaUiMgAxpSIyADGlIjIAMaUiMgAxrQE1MfrV7TGW6ujnoOonDGmJUA1d9EG9TKp2uQljCpRNBjTEqHAyxXBVxlVomgwpiWGUSWKBmNaoiZGNZVKVUU9E1EpY0xL3N6oYiyXZVSJZg5jWiYYVaKZxZiWGUaVaGYwpmVqXFT5miqRAYxpmVPgFfuiGk9+kFElCocxJQB7oqrB1xhVonAYU9oPo0oUDmNKk2JUifLDmNIhMapEU8OY0pQwqkSHxphSXhhVoskxphTK/0XVdxhVIsaUpkmhR++Nan08+QFGlcoVY0pGKPToQIM7GFUqV4wpGcWoUrliTGlGMKpUbhhTmlETo9rc3FwZ9UxEM4ExpVmxN6ojO3ZlGFUqRYwpzSpGlUoVY0qRYFSp1DCmFKl9Ud25y6mPx9/PqFKxYkypIKjqMYHiTkaVihVjSgWFUaVixZiWBHkSwO6opzBpfFRT8eQHGVUqdIxpCXAGst+aG7PjEOtGERmKeh6TVPUY1eBrfKRKhY4xLRFdmcymjJe9tGrunDgg10IwGPVMJvHpPxU6xrTEdHd3b8kMuFdJLFYrkCtE5PmoZzKJUaVCxZiWKMdxtjsD7nULlyyOC6xPANgY9UwmMapUaBjTEtfR0bHLGcjeLBWxhFjyIYg8E/VMJo2Pal0i8c+MKkWFMS0TjuOMOK771UVLFqfEkosE4kQ9k0mqegwCvWt4565+RpWiwJiWmY6OjjHHdb95wqtOWiaWnCfAn6OeySjVYxlVigJjWqba2tp8x3Xv7/fc48SSVSL4U9QzGcWo0ixjTMuciKjjug85nneiZVtnieD3Uc9kFKNKs4QxpX36s9lHHM9baVnyRhH5TdTzGMWo0gxjTOkA/a77c8dzX2/b1mtF5GdRz2PUhKi2tLRURD0SlQbGlA6qL5v9neO5b7Jt61Ui8p8ANOqZjNkT1cHNWxxGlUxgTOmw+rLZPzqe+/cxS1aISBuAIOqZjNk/qhczqhQWY0pT1uu6XY7nrralslkg9wkkF/VMxrwY1a8Pbt7Sz6hSGIwp5a3P6+txBtzzraqKRoHcLSKjUc9kjGoto0phMKYUWl9fX9YZcC9GzK4TyO0QDEc9kzGMKuWJMaVpcxxngzPgfrhGJG5B/k0gO6KeyRhGlaaIMSVjnnbd5/oH3E/FaqriliVfgMi2qGcyhlGlw2BMybienp7N/a772UWW1FqWXCnA5qhnMoZRpYNgTGnGdGSz2/pd9/NzFi6otSz5NAR/jXomYxhVmoAxpRnX1dW1s991bzoG8QQs+YiIPBv1TMaMi2oqkbiIUS1fjCnNmnavfTjjurdVzZ2TgiX/LEA26pmMUa3VQL8xuHlzH6NanhhTmnXd3d2jGdf9xtGJeCMsuUAEPVHPZIwizqiWJ8aUItPe3p7LuO63z12zplkseRdEuqKeyRhGtewwphS5dDodOK77oONmV4glb4fIH6OeyRhGtWwwplQw9lyo+kcZz32VCN4MyO+inskYRrXkMaZUkBzP+2lmwH2tCFoB+UXU8xjDqJYsxpQKmuN5v84MuG+wBKcA8uOo5zGGUS05jCkVhX7P+0NmwH2bJRUnCOT7KJULVe8f1QsZ1eLFmFJR6ff6O50B951SETtOBA8A8KOeyYgXo3r3thc29zKqxYkxpaLkOM6fHc97L2L2MhF8S0TGop7JBAUS46Pa2toai3ommhrGlIpaJpNxHM+7sMqSlFjyNREZiXomE/ZGdYPr9TGqxYExpZLQnc0+47juv1TUVCdE8GUAu6KeyQRGtXgwplRS1q9fv9HxvH+1qyprRXC9iGyPeiYTGNXCx5hSSerr63vB8bzL52FhrQiuFmBL1DOZsC+q3jMXRz0L7Y8xpZLW6XUOOp53jV1dFRfBZyCyKeqZjFBI1CPQ/hhTKgu9vb1Djufd8NKjjoxbgo8J8JeoZ6LSwphSWVm7du3ufs+7FRWxOkusD0LgRT0TlQbGlMqS4zgj/V72zmPi8XpL7PdBpC/qmai4MaZU1trb23P9Xuae89Zc0GSLfQ4gT0c9ExUnxpQIL15Ttc/L/IfjZZfbsN8BSEfUM1FxYUyJxhER7RvIPJwZcE+yYb9VgMeinomKA2NKdBB9A5mfOAPeqYB9ugh+FfU8VNgYU6LDyAxkfuV43umI2adC8JOo56HCxJgSTVEmk3ks43lvRcw+CYKHUSrXVCUjGFOiPGUymY6M572jMmYvh+A/AARRz0TRY0yJQlqfyTyd8bxzYjH7DSiRq1RReLzyDFFITYlE7Rjwad8PLgJQGfU8FC3GlChPDQ0NSX907NIxxftUlT8vQgAYU6Ipa0om68eC4LJgZOw8QGN894nGY0yJDqO+tr5Jkbts1A/eA8Dmm/g0GcaU6CCa6uqOG/X9ywMdexf4Zi0dBmNKNEF9vH6Fau6K0Zx/NsCLMNPUMKZEezQmkyf5QXBFoGP/EPUsVHwYUyp7qXjqFKh/Rc4P3hb1LFS8GFMqWw3J5GlBoJ9Vzb0p6lmo+DGmVHbqE4nXBQGu8v3gjKhnodLBmFLZaEgmz/B9TQeBnhb1LFR6GFMqeal4/E0A0r4fnBL1LFS6GFMqWalE4iwNcJWqnhT1LIbtssBfVS00jCmVFFWVVCL1doF/tQa6Iup5TBJgJyy5c45l3diVyWyKeh7aH7/VQSUhnU5bqUTinalE8imo/7AqVkQ9kykC2QHITaiIJRzX/SRDWpj4yJSK2qpVq+zOP3asvv+ee65URVPU85gkIkOAfjVWXfVvPT09m6Oehw6NMaWi1NraGtswMHDOk3984rNQbYh6HpNEZDsEt1fNmfOl7u7uLVHPQ1PDmFJRaWlpqdi+eeu5G1zvswoko57HKJFtUNxWM3/ezevWrdsa9TiUH8aUikJzc3Pl8K5dawY3b7kcqrVRz2OUYFBg3ToPC27pHOgcjHocCocxpYLWGm+t3qDP/NPIjl2XAXp01POYJMAWCG5FLHaL4zjbo56HpocxpYK0cuXKmhc2bvznZ9W7FMBRUc9jkgCbFfJlu7ryK729vUNRz0NmMKZUUJYvXz5357ahD2za+NdPQfGyqOcxSSAvQOTmqrk1t3V3d++Ieh4yizGlgtDY2DjfHxm5ZNe2oU8CurSkfhlEZJNAb56zYP7tXV1dO6Meh2YGY0qRakkmF25X/bA/PPJxBRaX1O8riTwHwb8tWrz4ax0dHbuiHodmFmNKkTj++OOP2D2086ODgX4MqgujnscowV9FrZtectTL7li7du1uuG7UE9EsYExpVjU0NCzVsbGP7R7a8RFVnR/1PCYJ8L8Q66ajceyd7QPtw85ANuqRaBYxpjQrltfVvXSnr58IRkb/RYG5Uc9jkgB/UUtugG1/3XGcEQeMaDliTGlGNTU1HTU2PPzJnTn/AwDmlNArohCRZyG4AbZ9d8ZxRqKeh6LFmNKMSKVSR8uY/+nR3bsvhqI66nmMEhmwIF+snFvzre7u7tGox6HCwJiSUU2JRO2Y6qXI+RcG0MpSenMeAg8i1y9avPjfOzo6xqIehwoLY0pGNDQ0JIORsc+MKdaooqKUPuIkQBaWXH90be097e3tOb47T5NhTGlampLJ+tEguDwYGTtXobESaigE4ojIda+IH3tfe3t7zmFE6RAYUwqlId6wLNCxK0b94BwAtpZURaXPhl73NyefdH9bW5vf7/HdeTo8xpTy0lRXd9yo71/h6+hqlNrP3oj0iuALJ5x00gNtbW1+n+dFPREVkdL6n4FmTH28fkWqNvHQaM7vguLdKKH/dkSw3oL13vPWXPBKx3Xva2tr86OeiYpPyfwPQTOjrq6uJRVP/DDQsT8p9GwAEvVMpgjQbYt9zrlr1hzXP5B9IJ1OB1HPRMWLT/NpUvXx+KsD4Crk/LeW0KuhLxJZJ4Jr+7PZh0RE0+l01BNRCWBMaT8NyeRpQaBXBqpvjHoW00TkKbHk2r5M5gcioiIl8yCbCgBjSgCAVDz+elVc5fvB6VHPYpoI/mSpfW2v6/yQEaWZwpiWuYZk8kw/0KtU9bVRz2KedIiFaxzX/REAMKI0kxjTMlUXr3uzwL/K94OVUc9imog8LpZc25/NPhL1LFQ+GNMyk0okzlLFlVD/5FJ7Y0kEv7fUurbPy/5X1LNQ+WFMy4CqSmM89Q+B+FdqoCdEPY9pAjwGwTWO5/006lmofPFzpiUsnU5bqURiVSqRfMqH/wNVlFhI5XeWJW90BrxTGVKKGmNagtLptFVfm3zP/ffc87QG+iBUj496JpNE5DexmH1GZsB9bb/r/jzqeYgAPs0vKa2trbFnBwbec989914BaEMpXXsEAETQDiDteO6vo56FaCLGtAS0tLRUbHth63kbXO9yAHVRzzMDHrUtSfe57m+jHoToYBjTErBt8+YbFPh41HOYJiI/V9tKZzKZx6KehehwGNNSoFJZUle2F/kpYKcdz/l91LMQTRVjSoVD8F+2yOf6XPfxqEchyhdjSpETyCO2LZ/rzWafiHoWorAYU4qKish/ImZ/znGcJ6Mehmi6GFOabQrBDy1UXNPv9XdGPQyRKYwpzRYVyA9sC9f0um5X1MMQmcaY0kwLROT7FbZ1zfpM5umohyGaKYwpzZQAggclFrvWcZw/Rz0M0UxjTMk0XwTfs1B5bZ/X1xP1MESzhTElU3yBPBCz5fM92Wxf1MMQzTbGlKZFIDkVfAe29Xknk3GinocoKowphSKQHETvQ8z+QsZxMlHPQxQ1xpTyIiJjUNxrV1de19vb60Y9D1GhYExpSkRkVIF7KgTXrffcgajnISo0jCkd0osR1W9VWXJ9dzb7TNTzEBUqxpQmJSIjUNyNmP3FjONsiHoeokLHmNL+BMOWyjesqsov9vb2/m/U4xAVC8aU9totgrsqampuXL9+/caohyEqNowp7RJL7qwGbnzadZ+LehiiYsWYlikBdgrkjpqYdVNXJrMp6nmIih1jWmYEsgMiX0XM+lK/4zwf9TxEpYIxLRMiMgTo7bHqqi/19PRsjnoeolLDmJY4Edkugtsq58y5ubu7e0vU8xCVKsa0VIlsE8itNfPn3rJu3bqtUY9DVOoY01IjGBTglnlYeGun1zkY9ThE5YIxLRECbBFLvqy2/RXHcbZHPQ9RuWFMS4CI3mdVVV3W29s7FPUsROWKMS0B/Z73h6hnICp3VtQDEBGVAsaUiMgAxpSIyADGlIjIAMaUiMgAxpSIyADGlIjIAMaUiMgAxpSIyADGlIjIAMaUiMgAxpSIyADGlIjIAMaUiMgAxpSIyADGlIjIAMaUiMgAxpSIyADGlIjIAMaUiMgAxpSIyADGlIjIAMaUiMgAxpSIyADGlIjIAMaUiMgAxpSIyADGlIjIAMaUiMgAxpSIyADGlIjIAMaUiMgAxpSIyADGlIjIAMaUiMgAxpSIyADGlIjIAMaUiMgAxpSIyADGlIjIAMaUiMgAxpSIyADGlIjIAMaUiMgAxpSIyADGlIjIAMaUiMgAxpSIyADGlIjIAMaUiMiAsDEVo1MQERWIIAhC9S1UTEVlbph1RESFbrSiIlTfwj0yFZ0fah0RUYGTsbF5YdaFe2QagDElopKkIgvCrAsVUxXEw6wjIip0AVAbZl24mAKNYdYRERU69TVU30K+AYVkS0tLRZi1RESFTATLwqwL+chUY9s3bz4xzFoiokKmwKvDrAv9oX2FdXrYtUREhSiVStVB9dgwa8PHVJUxJaKSor4fumuhYyqC1zc0NCwNu56IqNCI4uywa6fzyLTCHxt7d9j1RESFpKmp6ShVPTPs+uld6CTABdNaT0RUIHLDw+cCsMOun+ZVo/Sk+kTiddPbg4goWi0tLRWq+PB09pj2JfhU8dnp7kFEFKVtW7acr6rHTGcPAzHVN9TV1b1muvsQEUWhubm5EoFeNt19jFwcWnz/9lWrVoV+rYGIKCrDO3Z9SoG66e4T7uukgvXj/66KE5584olLpjsMEdFsWhZfFgf0ivHHJvZtqkI+MrW+DpGu/QYIcN2yZLIh3H5ERLNr1apVdg7D/w6gZtxhX0Q+Gma/kJfg0xxs64MAdN8x6LxcoA+2xlurw+xJRDSbnnz8iatV0Tr+mAhuq7Gsp8LsF/o100wm8xgEd40/pqp/swHeV8PuSUQ0Gxpq694y8ek9BB5isavD7jmtN6COQfzjE5/uq+Kf6moT10xnXyKimVIfj786gN+Gcf0TkTFb5F2O42wPu++0YtrutQ/HBKsFsmP/W/TKukRiWh+AJSIyLZVKvVIVP1Zgwo/myaV9rvv4dPae9kejel23FxbeC8Df74ZAv1JXm7hi8lVERLMrFU+dgrHcbxRYst8NIvc6XvbL093fyOdMHdf9kVjy/gNv0c+nahO38TOoRBSl+mTybaq5Xx4QUsiPj4nXXmTiHEZiCgCO637TElw68bhCP/Tk40+0NzQ0vMLUuYiIpmLVqlV2Kh6/LvCDHwGYs9+NIr9dtHTx6vb29pyJcxmLKQD0e96NItYlAIL9b9HTgpGxzvra5DtMno+I6GCaksn6Jx9/ol0VlwGQ8bcJ5JGXHnXkmzo6OnaZOp/RmAKA42XvEEveJSIj448rdGmA4Pt18fh/pVKpaX91i4hoMq3x1upUPPm5sUDXAXraAXcQ3HN0ovYf165du9vkeY3HFAAc131IbetUATIH3Kh4C3J+dyqR+GpTIhHq96mJiCZqjbdW1yUSH9qAgT7V4CpVrRp/u4iMwpIPZzzvfaae2o83IzEFgEwm04GK2Iki0jbxNlWt0kAvGVP0p2oT307FU62qKpPtQ0R0KI2NjYlUPH71sxjwEOhtk11KT4CM2tZrMq57+0zNEZupjQFgzwdgV6cSiXci0FsU2O9NKFWtAHAeNHdeKpEcqIsnv2eJ/mLB4sX/Y/K1DCIqHaoqjcnk8kDldIX+Y2545DQAMu7b7fuIyJhCvjxnwbxrurq6ds7kXDMa070c132oubn5v0d37LpaBR+e+PAbAKBaC+inA8Wnt23eMpqKxzsArBegF2o5VkwGVXVIfXuHbfv+gWcholKhquIH9hyx/PkQma8BjlWgURA01scTJ7/4EacD47k/+SVi9kcyjvPn2Zh5VmIKAN3d3TsAfKqpqenmseHhTyLQ9x/4LYQXqWolgJUAVr74rytAsO8VjgABU0pUBnLQABgfzcPlEwAg+EnMtr/Qm8n8zwwNNqkZe830YNavX7/Rcd1PxGqqawXWJ0Qk1BVaiIj2EpHnLchtllSckPG8t852SIFZfGQ6UU9Pz2YANwO4uTGRWJ4L8E4Ap4vgVXteSyUiOjiRfkAeFdEfL1y8+L87OjrGohwnspiO1+u6XQC6AFy1fPnyubuHhl6jKs2KoFGAZQp5BaDzRTH/YC8NEFFpEZERqO5QwRBUXhDRPgC9EOmBbT/mOM6GfXd23egG3aMgYjrennfcfr7nnwOoqqxevXrWX54gotnV1tZWVO+OFFxMD0dEFBOvUEVEFDE+wiMiMoAxJSIygDElIjKAMSUiMoAxJSIygDElIjKAMSUiMoAxJSIygDElIjKAMSUiMoAxJSIygDElIjKAMSUiMoAxJSIygDElIjKAMSUiMoAxJSIygDElIjKAMSUiMoAxJSIygDElIjKAMSUiMoAxJSIyIBb1AGGlUqlXIpdbpYrXCdCowGIACsEmAH+GyK+qRR7szmafiXpWIip9RRfTxmTypJyv1+tY7sy9x3T8HRRxAHGovnUYekMqnnjIqqy4rK+vLzvbsxJR+Siqp/n1icSVOT/4A6BnHv7eAABLVVf7o6PddYnE+TM6HBGVtaKIaUtLS0UqnvheEOg1CDOzohqB3puKJ79ofjoioiKJ6eDmrbep6urp7qMaXJqKJz9uYiYiovEKPqZ1icTF0OD9pvZTDW6qq637W1P7EREBBR7ThoaGpVDcZHhbGxLc1draWnRvvhFR4SromPojYx+F6kLjG6vWbxgYeLfxfYmobBVsTNPptCXQfzrM3XwRtIsgLZZcZAk+IJZcB8gTmPCJqQMoLjI2LBGVvYJ9qnv//fevUODlB72D4D8qUH1Zj9fjTXLrFfXx+hWKsZtVMenro6p6WiqVWuA4znZDIxNRGSvYR6bq+ycd5CbfEnwg43nnHCSkAIB+r7/z3DVrzhSxbjjIXWzkcidMe1AiIhRwTAWonfS4WJ/q97y7prJHOp0OHC/7GYg16f1VZNJzEBHlq2BjqipzJx4Tkd84XvbL+e4lMeujEBmYeNxSmRN2PiKi8Qo2poJg14FH9aowezmOMwLBdROPB6KTnIOIKH8FHFPs/0hS5Llz16z5bdj97IqKHwDw99tS9YBHq0REYRRsTAPbfmL/I9qRTqeDsPv19fW9IIA37pC/0LI6w+5HRDRewcb0vPPO+xOAjXv/LsBzBrb9vz1EHuvIZrcZ2JOIqHBjmk6nAxHcs++AyoLp7qn4vz1s6Denux8R0V4FG1MAmGPbt4jIEACooH46e7W0tFQIEAcAATLzlyx5wMCIREQACjymXZnMJkAuBQCoLm9OJo8Nu9fQ1q2vV+g8AIFY8sGOjo4xU3MSERV0TAHA8bJ3COSbADASBKGvReoHwb8CgCW4rN91f25qPiIioAhiCgBV8+ZcAsHDgFySqk3l/RXQhtq6f4TiLWLJzf2ed+NMzEhE5a0oYtrd3T3quO7ZqrhRxf/hsviy+FTXNiQSrwrgf0Msudhx3U/M4JhEVMaKIqYAICKaGXCvFLXfPYbhL9Unk393qPun02krlUhc6Kt+zLbkVMd1756tWYmo/BTsJfgOxhlw1gI4uz5evyKVSLzRBgZ82964cOHC3du2bbPm5ebV7IjteMV3vv3tBGy7PeM4/AgUEc24oovpXv1ef+dBbhoBMAige9aGIaKyVzRP84mIChljSkRkAGNKRGSAlcvl8v4mkKhUzMQwRERRG4nF8n4vSUVz1rnnnrsj34UiOi/fNURERWF0dH6+S2y1hqx0Oh0IsDOfhYFiab4nIyIqBjnLWpLvGrV0aO9rpnld11OgDfmejIioGFg+8u6bJTJoAYCKZPJaqXJcvicjIioGKsHx+a6J+dUZCwBE0ZPXyaBHp1KpunxPSERU8AJtzefuIrK92+v+64uPTIHevE/o+2/Oew0RUQE7LpF4mQIr8lmzt58WAMRi1u/zPqvquXmvISIqYMMq5yDPz99bit9j76J5ixY9LpC8PiKlilOWJZN5v7ZARFSIVFWgwUV5rxP9JbAnph0dHWMqmvdv0o8FweX5riEiKkSpROrtCjTnuSyYh0W/BsY9nLVg/SjvsytWp1KpE/NeR0RUQFpbW2Oi/ufzXSeC33R6nYPAuJhWz5/7PREZyXMvCzn/jnQ6ze/4E1HR+svAwMdDPCqFwL5375/tvX/YtGnT8OKFR6wA8Mo893vFuqc6dcvg4K/zHYSIKGr18foViuAB5H995112deWFmzdvHgUmvGtlx6yvhRlGFVfVxev4USkiKirLli1bopprU9WqvBeL3N/b2zu096/7xbQ3k3lUBGtDzGSJ+g81JBKvCrGWiGjWLV++fG5ueOTHCk3lu1YguVhV5RfHHzvgtU6xrC+EGUyBub7iZ6l4/PVh1hMRzZbm5ubFu7Zv/4WqvjrUBoIHent73fGHDohpfzb7YxG0hzqB6kJAfppKJC4MtZ6IaIY11dUdN7xz12OqOCXkFrtjqLp64sFJ34UXrbhERPK+aDQAqGqVBnp3XTz+QCqVekmYPYiITEun01ZdIvGh0Zz/OFQbw+4jkM/3eD3exOP2JPfFlm1bXli8aNEcAKeFPSGA4xEEFy09YtFwY1NT14YNG3LT2IuIKLSGZPKMzic7H4TqhQBC/1KICHqq5s09//nnn/cPuO1gi5qbmyuHd+x6DNCWsCceN8FzArkTMes+x3Hyu9wfEVEIjY2N84OR3NmK4AOhXxsdR0RGoPZKZ8D506S3H2pxQ0ND0h8de/LF10LNEJGnAH3Ugv14oNIbq4k9Y9v2UHd396ipcxBR+Vi1apWd7eiYNyjyEku1UQMsB/RvVfU0ADWmziNiXeJ42TsOevvhNkglEmdpoA/jIC8JGBTM8P5EVJpm/huYIvdmPHfNIe8ylX1SicRFGug3jAxFRFRMBD85Jh7/+/b29kO+7zOlR5tbBgefXHLE4lFAzzAzHRFR4RPgsUVLl5y1du3aw163ZMpP3bcMbv3d0iMWbVXgzZjiI1oiomIlgv+es3DBWZ2dnbumcv+8XgfdMjj4h6VHLO6D4Kx81xIRFQuBfGfh0iXv7uzsHJ76mhAaksmTAz/4ngKJMOuJiAqRiIwCcqnjZW/Jd22od8H6stk/zpNFJwrk+2HWExEVGgGyliWnhQnpnvXTUxev+wcguBWqx053LyKi2SYioyK4aemRR35h7dq1u0PvY2KYlpaWOYMvbPkMBB8x+QF/IqIZpBD8MCZyWa/r5v9z9xMYfVe+JZlcuF31wxrgowpdanJvIiITBJJT0bZK275ufSbztLl9Z0Bzc3Pl2I7hvwvEPx+Qt6pq5Uych4hoqkTQCVjfrhZ94GnXfc74/qY3nCiVSi2QIHidBsHpAFoVaIKieqbPS0RlLYDgGVH5H0AejUnlo5NdNs+kWf/wfTqdtr773e/W5kZyjTb8l/ki80VlvqrWRDEPERU3y8KoqgxBdEgC2WpZ6iw+8sj+6byZFMb/B+sM0/Xs0SbwAAAAAElFTkSuQmCC;" parent="1" vertex="1">
          <mxGeometry x="420" y="450" width="70" height="90" as="geometry" />
        </mxCell>
        <mxCell id="9OJOCxq-4V8C3ikbFelk-10" value="" style="shape=waypoint;sketch=0;fillStyle=solid;size=6;pointerEvents=1;points=[];fillColor=none;resizable=0;rotatable=0;perimeter=centerPerimeter;snapToPoint=1;" parent="1" vertex="1">
          <mxGeometry x="520" y="520" width="20" height="20" as="geometry" />
        </mxCell>
        <mxCell id="9OJOCxq-4V8C3ikbFelk-11" value="" style="shape=waypoint;sketch=0;fillStyle=solid;size=6;pointerEvents=1;points=[];fillColor=none;resizable=0;rotatable=0;perimeter=centerPerimeter;snapToPoint=1;" parent="1" vertex="1">
          <mxGeometry x="540" y="520" width="20" height="20" as="geometry" />
        </mxCell>
        <mxCell id="9OJOCxq-4V8C3ikbFelk-12" value="" style="shape=waypoint;sketch=0;fillStyle=solid;size=6;pointerEvents=1;points=[];fillColor=none;resizable=0;rotatable=0;perimeter=centerPerimeter;snapToPoint=1;" parent="1" vertex="1">
          <mxGeometry x="560" y="520" width="20" height="20" as="geometry" />
        </mxCell>
        <mxCell id="9OJOCxq-4V8C3ikbFelk-22" value="" style="html=1;shadow=0;dashed=0;align=center;verticalAlign=middle;shape=mxgraph.arrows2.arrow;dy=0.6;dx=40;direction=north;notch=0;rotation=-180;" parent="1" vertex="1">
          <mxGeometry x="375" y="220" width="20" height="140" as="geometry" />
        </mxCell>
        <mxCell id="9OJOCxq-4V8C3ikbFelk-24" value="" style="ellipse;shape=cloud;whiteSpace=wrap;html=1;" parent="1" vertex="1">
          <mxGeometry x="265" y="40" width="240" height="160" as="geometry" />
        </mxCell>
        <mxCell id="9OJOCxq-4V8C3ikbFelk-25" value="Data" style="text;html=1;align=center;verticalAlign=middle;resizable=0;points=[];autosize=1;strokeColor=none;fillColor=none;fontFamily=Georgia;fontStyle=2;fontSize=24;" parent="1" vertex="1">
          <mxGeometry x="350" y="100" width="70" height="40" as="geometry" />
        </mxCell>
        <mxCell id="OajkDX-n7sqz-KXNrVwg-1" value="" style="endArrow=none;dashed=1;html=1;rounded=0;strokeWidth=2;dashPattern=8 8;" edge="1" parent="1">
          <mxGeometry width="50" height="50" relative="1" as="geometry">
            <mxPoint x="40" y="-30" as="sourcePoint" />
            <mxPoint x="800" y="-30" as="targetPoint" />
          </mxGeometry>
        </mxCell>
        <mxCell id="OajkDX-n7sqz-KXNrVwg-2" value="" style="ellipse;shape=cloud;whiteSpace=wrap;html=1;" vertex="1" parent="1">
          <mxGeometry x="265" y="-300" width="240" height="160" as="geometry" />
        </mxCell>
        <mxCell id="OajkDX-n7sqz-KXNrVwg-3" value="Global Splunk" style="text;html=1;align=center;verticalAlign=middle;resizable=0;points=[];autosize=1;strokeColor=none;fillColor=none;fontFamily=Georgia;fontStyle=2;fontSize=24;" vertex="1" parent="1">
          <mxGeometry x="300" y="-240" width="170" height="40" as="geometry" />
        </mxCell>
        <mxCell id="OajkDX-n7sqz-KXNrVwg-7" value="" style="html=1;shadow=0;dashed=0;align=center;verticalAlign=middle;shape=mxgraph.arrows2.arrow;dy=0.6;dx=40;direction=north;notch=0;" vertex="1" parent="1">
          <mxGeometry x="375" y="-110" width="20" height="140" as="geometry" />
        </mxCell>
      </root>
    </mxGraphModel>
  </diagram>
</mxfile>
